<svg viewBox="0 0 330 200" xmlns="http://www.w3.org/2000/svg"><g><g><g><g><g><line x1="60" y1="177" x2="55" y2="177" style="visibility: inherit;" fill="rgb(0, 0, 0)" stroke="rgb(204, 204, 204)" stroke-width="1px"></line><line x1="60" y1="157.33333333333331" x2="55" y2="157.33333333333331" style="visibility: inherit;" fill="rgb(0, 0, 0)" stroke="rgb(204, 204, 204)" stroke-width="1px"></line><line x1="60" y1="137.66666666666666" x2="55" y2="137.66666666666666" style="visibility: inherit;" fill="rgb(0, 0, 0)" stroke="rgb(204, 204, 204)" stroke-width="1px"></line><line x1="60" y1="118.00000000000001" x2="55" y2="118.00000000000001" style="visibility: inherit;" fill="rgb(0, 0, 0)" stroke="rgb(204, 204, 204)" stroke-width="1px"></line><line x1="60" y1="98.33333333333334" x2="55" y2="98.33333333333334" style="visibility: inherit;" fill="rgb(0, 0, 0)" stroke="rgb(204, 204, 204)" stroke-width="1px"></line><line x1="60" y1="78.66666666666666" x2="55" y2="78.66666666666666" style="visibility: inherit;" fill="rgb(0, 0, 0)" stroke="rgb(204, 204, 204)" stroke-width="1px"></line><line x1="60" y1="58.999999999999986" x2="55" y2="58.999999999999986" style="visibility: inherit;" fill="rgb(0, 0, 0)" stroke="rgb(204, 204, 204)" stroke-width="1px"></line><line x1="60" y1="39.33333333333335" x2="55" y2="39.33333333333335" style="visibility: inherit;" fill="rgb(0, 0, 0)" stroke="rgb(204, 204, 204)" stroke-width="1px"></line><line x1="60" y1="19.666666666666657" x2="55" y2="19.666666666666657" style="visibility: inherit;" fill="rgb(0, 0, 0)" stroke="rgb(204, 204, 204)" stroke-width="1px"></line><line x1="60" y1="0" x2="55" y2="0" style="visibility: inherit;" fill="rgb(0, 0, 0)" stroke="rgb(204, 204, 204)" stroke-width="1px"></line></g><g transform="translate(50, 0)"><text x="0" y="177" dx="0em" dy="0.3em" style="text-anchor: end; visibility: hidden; font-family: Roboto, sans-serif; font-size: 12px; font-weight: 200;" fill="rgb(255, 255, 255)" stroke="none" stroke-width="1px">-5e-3</text><text x="0" y="157.33333333333331" dx="0em" dy="0.3em" style="text-anchor: end; visibility: inherit; font-family: Roboto, sans-serif; font-size: 12px; font-weight: 200;" fill="rgb(255, 255, 255)" stroke="none" stroke-width="1px">0</text><text x="0" y="137.66666666666666" dx="0em" dy="0.3em" style="text-anchor: end; visibility: hidden; font-family: Roboto, sans-serif; font-size: 12px; font-weight: 200;" fill="rgb(255, 255, 255)" stroke="none" stroke-width="1px">5e-3</text><text x="0" y="118.00000000000001" dx="0em" dy="0.3em" style="text-anchor: end; visibility: inherit; font-family: Roboto, sans-serif; font-size: 12px; font-weight: 200;" fill="rgb(255, 255, 255)" stroke="none" stroke-width="1px">0.01</text><text x="0" y="98.33333333333334" dx="0em" dy="0.3em" style="text-anchor: end; visibility: hidden; font-family: Roboto, sans-serif; font-size: 12px; font-weight: 200;" fill="rgb(255, 255, 255)" stroke="none" stroke-width="1px">0.015</text><text x="0" y="78.66666666666666" dx="0em" dy="0.3em" style="text-anchor: end; visibility: inherit; font-family: Roboto, sans-serif; font-size: 12px; font-weight: 200;" fill="rgb(255, 255, 255)" stroke="none" stroke-width="1px">0.02</text><text x="0" y="58.999999999999986" dx="0em" dy="0.3em" style="text-anchor: end; visibility: hidden; font-family: Roboto, sans-serif; font-size: 12px; font-weight: 200;" fill="rgb(255, 255, 255)" stroke="none" stroke-width="1px">0.025</text><text x="0" y="39.33333333333335" dx="0em" dy="0.3em" style="text-anchor: end; visibility: inherit; font-family: Roboto, sans-serif; font-size: 12px; font-weight: 200;" fill="rgb(255, 255, 255)" stroke="none" stroke-width="1px">0.03</text><text x="0" y="19.666666666666657" dx="0em" dy="0.3em" style="text-anchor: end; visibility: hidden; font-family: Roboto, sans-serif; font-size: 12px; font-weight: 200;" fill="rgb(255, 255, 255)" stroke="none" stroke-width="1px">0.035</text><text x="0" y="0" dx="0em" dy="0.3em" style="text-anchor: end; visibility: hidden; font-family: Roboto, sans-serif; font-size: 12px; font-weight: 200;" fill="rgb(255, 255, 255)" stroke="none" stroke-width="1px">0.04</text></g><line x1="60" y1="0" x2="60" y2="177" fill="rgb(0, 0, 0)" stroke="rgb(204, 204, 204)" stroke-width="1px"></line></g></g><g transform="translate(60, 0)" clip-path="url(#clip_0)"><clipPath id="clip_0"><rect width="270" height="177"></rect></clipPath><g><g><g><line x1="0" y1="0" x2="0" y2="177" fill="rgb(0, 0, 0)" stroke="rgb(189, 189, 189)" stroke-width="1px" opacity="0.25"></line><line x1="22.5" y1="0" x2="22.5" y2="177" fill="rgb(0, 0, 0)" stroke="rgb(189, 189, 189)" stroke-width="1px" opacity="0.25"></line><line x1="45" y1="0" x2="45" y2="177" fill="rgb(0, 0, 0)" stroke="rgb(189, 189, 189)" stroke-width="1px" opacity="0.25"></line><line x1="67.5" y1="0" x2="67.5" y2="177" fill="rgb(0, 0, 0)" stroke="rgb(189, 189, 189)" stroke-width="1px" opacity="0.25"></line><line x1="90" y1="0" x2="90" y2="177" fill="rgb(0, 0, 0)" stroke="rgb(189, 189, 189)" stroke-width="1px" opacity="0.25"></line><line x1="112.5" y1="0" x2="112.5" y2="177" fill="rgb(0, 0, 0)" stroke="rgb(189, 189, 189)" stroke-width="1px" opacity="0.25"></line><line x1="135" y1="0" x2="135" y2="177" fill="rgb(0, 0, 0)" stroke="rgb(189, 189, 189)" stroke-width="1px" opacity="0.25"></line><line x1="157.5" y1="0" x2="157.5" y2="177" fill="rgb(0, 0, 0)" stroke="rgb(189, 189, 189)" stroke-width="1px" opacity="0.25"></line><line x1="180" y1="0" x2="180" y2="177" fill="rgb(0, 0, 0)" stroke="rgb(189, 189, 189)" stroke-width="1px" opacity="0.25"></line><line x1="202.5" y1="0" x2="202.5" y2="177" fill="rgb(0, 0, 0)" stroke="rgb(189, 189, 189)" stroke-width="1px" opacity="0.25"></line><line x1="225" y1="0" x2="225" y2="177" fill="rgb(0, 0, 0)" stroke="rgb(189, 189, 189)" stroke-width="1px" opacity="0.25"></line><line x1="247.5" y1="0" x2="247.5" y2="177" fill="rgb(0, 0, 0)" stroke="rgb(189, 189, 189)" stroke-width="1px" opacity="0.25"></line><line x1="270" y1="0" x2="270" y2="177" fill="rgb(0, 0, 0)" stroke="rgb(189, 189, 189)" stroke-width="1px" opacity="0.25"></line></g><g><line x1="0" y1="177" x2="270" y2="177" fill="rgb(0, 0, 0)" stroke="rgb(189, 189, 189)" stroke-width="1px" opacity="0.25"></line><line x1="0" y1="157.33333333333331" x2="270" y2="157.33333333333331" fill="rgb(0, 0, 0)" stroke="rgb(189, 189, 189)" stroke-width="1px" opacity="0.25"></line><line x1="0" y1="137.66666666666666" x2="270" y2="137.66666666666666" fill="rgb(0, 0, 0)" stroke="rgb(189, 189, 189)" stroke-width="1px" opacity="0.25"></line><line x1="0" y1="118.00000000000001" x2="270" y2="118.00000000000001" fill="rgb(0, 0, 0)" stroke="rgb(189, 189, 189)" stroke-width="1px" opacity="0.25"></line><line x1="0" y1="98.33333333333334" x2="270" y2="98.33333333333334" fill="rgb(0, 0, 0)" stroke="rgb(189, 189, 189)" stroke-width="1px" opacity="0.25"></line><line x1="0" y1="78.66666666666666" x2="270" y2="78.66666666666666" fill="rgb(0, 0, 0)" stroke="rgb(189, 189, 189)" stroke-width="1px" opacity="0.25"></line><line x1="0" y1="58.999999999999986" x2="270" y2="58.999999999999986" fill="rgb(0, 0, 0)" stroke="rgb(189, 189, 189)" stroke-width="1px" opacity="0.25"></line><line x1="0" y1="39.33333333333335" x2="270" y2="39.33333333333335" fill="rgb(0, 0, 0)" stroke="rgb(189, 189, 189)" stroke-width="1px" opacity="0.25"></line><line x1="0" y1="19.666666666666657" x2="270" y2="19.666666666666657" fill="rgb(0, 0, 0)" stroke="rgb(189, 189, 189)" stroke-width="1px" opacity="0.25"></line><line x1="0" y1="0" x2="270" y2="0" fill="rgb(0, 0, 0)" stroke="rgb(189, 189, 189)" stroke-width="1px" opacity="0.25"></line></g></g></g><g><g><line x1="0" y1="157.33333333333331" x2="270" y2="157.33333333333331" fill="rgb(0, 0, 0)" stroke="rgb(153, 153, 153)" stroke-width="1.5px"></line></g></g><g><g><line x1="22.5" y1="0" x2="22.5" y2="177" fill="rgb(0, 0, 0)" stroke="rgb(153, 153, 153)" stroke-width="1.5px"></line></g></g><g><g><g><g><g><path stroke="rgb(0, 119, 187)" stroke-width="2px" d="M22.986,131.84533340483904L23.278499999999998,122.25783366492637L23.602500000000003,110.65349641117922L23.67,103.90709870286724L24.3135,85.82860810694844L24.597,69.68699417743169L24.799500000000002,57.19586508454329L24.925500000000003,49.92886609479064L25.0065,45.64766175860444L25.1865,43.107014566851795L25.4655,41.59325277553044L25.942500000000003,40.69065921370983L26.122500000000002,40.15144495235957L26.4015,39.83035008319709L26.491500000000002,39.638572601734474L27.072000000000003,39.52910123172646L27.1215,39.46398335499353L27.171000000000003,39.42547654720859L27.567,39.40724292518994L27.598499999999998,39.39671961807509L27.7425,39.39238112196838L27.796499999999998,39.39054297188773L27.8325,39.38995881084131L28.1385,39.39425327947236L28.147499999999997,39.39697354555932L28.224,39.39983946884275L28.696499999999997,39.40978511479932L28.881,39.41924865811533L29.0655,39.428581192173795L29.2275,39.437521551486405L29.2995,39.444412588657976L29.313000000000002,39.448834405445545L29.470499999999998,39.454916252647266L29.546999999999997,39.46027387830335L30.019499999999997,39.47464217162623L31.2345,39.516744815246355L31.3245,39.54476112915694L31.329,39.56171158435449L33.12,39.634604669668775L33.4665,39.69220500818155L33.489,39.72768247705322L33.5835,39.752857813737705L33.597,39.768522753025785L33.768,39.78507228714852L34.101,39.80932073209516L34.362,39.835451378906406L34.398,39.852753298174775L34.582499999999996,39.87154223125704L34.623000000000005,39.884682358909984L34.6905,39.8956962753988L34.730999999999995,39.90419190702782L34.9605,39.9201294337389L35.037,39.93336101301575L35.3025,39.954238390493806L35.882999999999996,39.996196448148346L36.378,40.047702379628674L36.4725,40.0837637271114L36.477,40.105646702783986L36.657000000000004,40.12871402291714L36.9,40.15621083252585L36.980999999999995,40.17732162240917L37.089,40.196186234337716L37.197,40.213755889604066L37.2105,40.225083073299864L37.606500000000004,40.255285779826906L37.8225,40.286480639493305L38.178,40.327179698615794L38.2545,40.35640818584136L38.3715,40.381347877034564L38.551500000000004,40.40782586867551L38.7045,40.43361796221101L38.7765,40.453790908739734L38.9475,40.477148033590574L39.0105,40.49534128948738L39.024,40.507156925467775L39.2085,40.52660448575108L39.5235,40.5597335252608L39.820499999999996,40.60025968671513L40.122,40.64595383119982L40.5585,40.705061412130206L40.608000000000004,40.74417451000676L40.995,40.79655529047926L41.049,40.83207189233629L41.318999999999996,40.87402473007556L41.3685,40.90301788517783L41.525999999999996,40.932645942781065L41.9355,40.9827527340335L41.9805,41.01641553855431L42.93,41.11471269061063L43.042500000000004,41.183218237935876L43.425,41.25713506570223L43.609500000000004,41.31755050160942L44.2485,41.410632146230085L44.2665,41.4681075947468L44.4735,41.52141586166526L45.36,41.63619798156762L45.4005,41.70893559495494L45.409499999999994,41.75343974812756L45.5985,41.79829120864827L45.616499999999995,41.82693990804967L45.702000000000005,41.852402103373684L45.846000000000004,41.88168164437768L45.904500000000006,41.90496689485961L46.016999999999996,41.929974540516454L46.1835,41.96141371793234L46.332,41.995041394233816L46.6335,42.045499494075855L46.818,42.09450357381506L47.0475,42.14741791818939L48.006,42.27989579161646L48.4155,42.40366330298172L48.7485,42.51448256702652L48.901500000000006,42.59793328601975L48.96,42.654518356078015L49.3065,42.7273520907679L49.419,42.783791483298074L49.491,42.82583724708665L49.743,42.87988384913192L50.004,42.94245263745857L50.1255,42.994128009540674L50.1435,43.02723151496819L50.516999999999996,43.09097877970401L50.598000000000006,43.13882472811776L50.76,43.18681539316162L50.99849999999999,43.24420621327071L51.0075,43.279725013165724L51.1155,43.31407143155081L51.12,43.33522436705834L51.142500000000005,43.3506386201835L51.165,43.36261259444095L51.984,43.470485217934076L52.065,43.54532509102339L52.137,43.599246353232346L52.1595,43.63442124147625L52.199999999999996,43.660610698974594L52.789500000000004,43.75115919708199L52.8795,43.81704643129697L53.1135,43.88679286296798L53.2935,43.95204418771845L53.3295,43.99588974241444L53.64,44.06294360512908L53.964,44.14613795730122L53.9865,44.19905546378682L53.99550000000001,44.232007497975765L54.247499999999995,44.285538789289895L54.74250000000001,44.384767427041766L54.936,44.470823262529336L55.142999999999994,44.55100043479408L55.3905,44.633479296349314L55.592999999999996,44.711281700441944L55.9665,44.8106487811663L56.092499999999994,44.888177692158536L56.1105,44.937259280242614L56.1195,44.967988888556626L56.2815,45.00956929930143L56.448,45.05841627642369L56.673,45.12020680859597L56.722500000000004,45.16445807350623L56.902499999999996,45.21718754013152L57.276,45.30357983493669L57.289500000000004,45.35740506321505L57.4065,45.40698172253559L57.5775,45.46208586853059L57.699,45.513241644072416L57.852,45.56680814347736L58.032000000000004,45.625979544254584L58.4415,45.723490139762035L59.0535,45.87596788858543L59.814,46.08639724565647L60.291,46.28848021336258L60.9705,46.519359376676036L60.997499999999995,46.66228271721631L61.2855,46.795104473027536L61.47,46.905128840124384L61.627500000000005,46.99714633435952L61.7625,47.07472580836781L61.8885,47.1422152866914L61.9965,47.2007143447793L62.0055,47.237314227223195L62.208,47.293166102766875L62.253,47.33423221615943L62.4195,47.3868909846226L62.451,47.42380228462695L63.2655,47.584743397372215L63.549,47.730242584310325L63.6885,47.84173974444213L64.13850000000001,47.98722691366916L64.314,48.105386821606835L64.368,48.185807091899186L64.476,48.253137210751056L64.62,48.319048752235055L65.4255,48.50282034070094L65.466,48.62040383691072L66.024,48.792453939166535L66.2085,48.929514404801665L66.393,49.04571296374091L66.39750000000001,49.11626144806597L66.4785,49.173545195023536L66.771,49.26212790411332L66.90599999999999,49.34041295728057L67.0275,49.41006360618854L67.131,49.471222077818226L67.2705,49.53408414622834L67.275,49.57264831960613L67.3245,49.60509135703492L67.383,49.63556436924287L67.41,49.658932701119674L67.473,49.68483126682177L67.788,49.75998389237404L67.9095,49.82817122447461L68.049,49.89566967949052L68.1255,49.95078346370525L68.36399999999999,50.029550913406624L68.4405,50.09151401128364L68.472,50.134755202170176L69.0435,50.27132862093209L69.05699999999999,50.355901386035434L69.0615,50.40752128304618L69.282,50.48152265871512L69.507,50.570025507161695L69.5655,50.634623809784465L69.759,50.71150646853235L69.8355,50.77274603991383L70.02900000000001,50.84780980755096L70.398,50.96631431942704L70.407,51.03921639143739L70.68599999999999,51.13885223797547L70.73100000000001,51.20767745930903L70.7625,51.25530553594602L72.108,51.55790748438462L72.1305,51.74410773262119L72.1665,51.86325392491461L72.2475,51.9514692864826L72.4275,52.04165766489568L72.5355,52.118183627836295L72.5625,52.16970830069725L72.9585,52.283206333160884L72.9855,52.356958206161146L73.494,52.508145526447464L73.7775,52.65888168338847L73.845,52.76365968539663L73.998,52.8590791659813L75.5415,53.24943315012816L75.69,53.51613960876204L75.816,53.70379575022542L75.906,53.836161934903174L76.3785,54.01985103104764L76.626,54.18499493726641L76.8465,54.3331974951141L77.292,54.52187535014033L77.31,54.63912623830405L77.562,54.76622416798929L77.8635,54.91066537434653L77.9265,55.01161658645548L78.0975,55.11103190907364L78.29549999999999,55.21578537779166L78.30449999999999,55.28069178277519L78.471,55.357674316650225L78.6465,55.444059421272435L78.6645,55.50001964548311L78.99749999999999,55.610174287830276L79.209,55.725099022869955L79.6905,55.90579032044689L80.559,56.21770916466562L80.577,56.40910392454057L80.7525,56.56537892292414L80.8785,56.68895652614318L80.89649999999999,56.76736412478853L81.8505,57.04188474436623L82.3725,57.33231821310534L82.575,57.555589008243956L82.7505,57.73213254684929L82.8855,57.8708809610688L83.05199999999999,57.994688983548684L83.3535,58.14264811821122L83.47949999999999,58.26229706653359L83.5155,58.342919148495206L83.808,58.46319079845573L83.89349999999999,58.5564215965038L83.91600000000001,58.6179105591952L84.6135,58.827581063042835L84.82499999999999,59.006074864743596L85.374,59.25059397563046L85.4145,59.40748035239004L85.5315,59.53103208736672L85.7115,59.65051064012106L86.301,59.87139852911823L86.35050000000001,60.01650923333919L86.4315,60.124168712947906L86.66550000000001,60.24837495628247L86.697,60.330937233030276L87.0975,60.482921175038506L87.12899999999999,60.582188168292646L87.327,60.69259067920371L87.39,60.775035261397676L87.912,60.95920234875986L88.101,61.11866935664679L88.308,61.26810485466876L88.40700000000001,61.38351699915265L88.857,61.57018310153526L89.19,61.76944902931078L89.33399999999999,61.92684506810361L89.3925,62.036671070873666L89.4105,62.10730539080693L89.667,62.21728524953441L89.7345,62.301093910477455L90.09,62.445450137660046L90.29700000000001,62.58700604474852L90.3015,62.67313525817579L90.3195,62.72959546292893L90.4995,62.81135696398261L90.5625,62.87719426091735L90.6255,62.93348875762756L90.693,62.98527082674743L90.83699999999999,63.05479196830415L90.9,63.11334366077477L91.5075,63.311437351351735L91.6335,63.46422067851569L91.674,63.56680701715199L91.89,63.686644762014026L92.0565,63.803563767227324L92.2095,63.91515038225221L92.74950000000001,64.12884729790589L92.87549999999999,64.29142042212425L93.2085,64.47996116804723L93.4245,64.65227123972363L93.57300000000001,64.79641846543501L93.69449999999999,64.91630055144996L93.93299999999999,65.05389489910347L94.15350000000001,65.1972928991795L94.6485,65.42037648663207L94.8465,65.60922155999312L95.03099999999999,65.77386911445758L95.337,65.95799560388268L95.34150000000001,66.06972577794596L95.589,66.20596616640212L95.913,66.37853729828909L96.0615,66.52379652324149L96.26849999999999,66.66919697202938L96.354,66.78052645848808L96.426,66.8676212207076L97.79400000000001,67.30799580865684L97.812,67.57735783608904L98.2575,67.86636950027238L98.4015,68.0810563909091L98.4645,68.22794422986571L98.47800000000001,68.3199540663707L98.586,68.40617117219853L98.766,68.50964929421954L99.3465,68.73914450462786L99.5445,68.93411945932782L99.5715,69.05892317076729L99.57600000000001,69.1351094975881L100.188,69.35848366626972L100.233,69.50560777828419L100.7775,69.75272162027353L100.944,69.94969586094534L101.538,70.24214039580215L101.84849999999999,70.50900840562296L102.1005,70.7434629090729L102.141,70.89609523344652L102.29400000000001,71.03288733400075L102.4605,71.16422240597309L102.96900000000001,71.39383015431345L103.21199999999999,71.60385659375218L103.527,71.82372955702799L104.049,72.11163834267688L104.08500000000001,72.2951622200042L104.103,72.41066584936958L104.121,72.48536026051946L104.43599999999999,72.62462304972395L104.7465,72.8014780855742L104.9985,72.98345162728828L105.327,73.19171511288127L105.435,73.349293286536L105.6105,73.4968980103337L105.669,73.60316143728909L105.7095,73.67917510249784L105.8535,73.76839005974075L106.2765,73.95024833099329L106.3575,74.08397708147535L106.92,74.33548221872115L106.947,74.4946201794497L106.9605,74.59422332563905L107.0145,74.67046083123827L107.08200000000001,74.73680811392074L107.57249999999999,74.92659677028739L107.964,75.16049404915222L108.49499999999999,75.46407056436568L108.51299999999999,75.6517610962329L108.94500000000001,75.89756358356105L109.2555,76.14097701325511L109.44,76.34410948245424L109.701,76.54684023075521L109.8315,76.70894680627117L109.89450000000001,76.82575759812948L110.24549999999999,77.00487269078546L110.259,77.11654124129724L110.4615,77.24654065650051L110.781,77.42407976437417L110.94749999999999,77.58254157413329L111.78899999999999,77.94080654527318L111.879,78.18398097601873L112.032,78.3778823740125L112.104,78.51682077408874L112.1535,78.61572751339897L112.4235,78.75990838768058L112.44149999999999,78.85207582689507L112.5,78.92577435678552L112.5675,78.99122832480853L113.904,79.45236678479385L114.1335,79.80175416603647L114.2775,80.05704474609072L114.318,80.22306374606077L114.40350000000001,80.34980335571319L114.4845,80.45155693931154L114.723,80.58836704001489L115.1055,80.79211243891118L115.119,80.91865588170327L115.2855,81.04760460024299L115.4115,81.16512545723847L115.4925,81.261462081149L115.50150000000001,81.32213307540106L115.92450000000001,81.49353492729158L116.289,81.71289517167583L116.766,81.99725219418629L116.78399999999999,82.17363668368276L116.8605,82.30399324826011L116.883,82.38942222991551L116.91,82.44933649817486L117.00450000000001,82.51559585880862L117.1665,82.60734257033444L117.23849999999999,82.68550686795102L117.585,82.84374334668269L118.053,83.08929266088295L118.206,83.28591722778333L118.404,83.46772546290468L118.7595,83.69153310290442L118.89,83.86796795585632L119.62349999999999,84.21109300410079L119.67299999999999,84.43300113611615L119.69550000000001,84.57343432227688L119.79899999999999,84.69122865152309L120.0465,84.8421440284567L120.0555,84.93561209407152L120.6585,85.18745738565941L120.807,85.38683091183515L121.788,85.82586280850576L121.896,86.12450143703623L122.1615,86.39031494861129L122.23349999999999,86.57330616040201L122.535,86.78157655233048L122.78699999999999,86.98890808523039L122.886,87.14568092008635L123.2055,87.34428654857597L123.2145,87.46639514017973L123.381,87.59417460391248L124.6635,88.09150976158773L124.90650000000001,88.46975987087245L125.019,88.73369069455399L125.649,89.09931902622182L126.324,89.54107290825247L126.4275,89.84025162848432L126.4815,90.03756495352148L127.3455,90.44110832434232L127.4895,90.73080322437286L127.83149999999999,91.01764313753128L127.836,91.19123288020897L128.2545,91.43377957160516L128.655,91.71183344770617L128.664,91.88164615461716L128.907,92.06398062803042L128.9205,92.1778533492348L130.8195,92.87577592733669L132.2055,93.75487089794775L132.61499999999998,94.41844074910024L132.633,94.82256686678612L132.7185,95.09346898590177L133.2315,95.42659092760871L133.67249999999999,95.77314456691418L133.7355,96.00203319722459L133.9155,96.19924800793756L134.2305,96.4223796419328L134.298,96.57871698192909L134.442,96.7204355350265L134.4735,96.81594782081022L134.7255,96.95711321536764L134.81550000000001,97.07176279269099L134.8245,97.14354757314388L134.964,97.23304439989008L135.243,97.37959734344845L135.5085,97.55589433656752L135.846,97.77400535829833L136.125,97.99773707581342L136.7955,98.35514570629269L137.0025,98.63848692490062L137.106,98.84293747830431L137.925,99.2381559097054L138.168,99.55613823532754L138.213,99.76189987043357L138.222,99.88835042027523L138.411,100.02709888204666L138.6675,100.19567419360916L139.086,100.4360108043999L139.131,100.59517768420281L139.185,100.70863482891025L139.941,101.02804434421759L139.98149999999998,101.23315012329678L140.01749999999998,101.36817760889048L140.0535,101.46115958367376L140.19299999999998,101.56330585881821L140.68800000000002,101.78904795490554L140.80949999999999,101.96484851246785L140.86800000000002,102.08975700580504L140.877,102.16769127474282L141.201,102.32203422144684L141.399,102.48036809259037L141.9795,102.76799130535154L142.146,102.99579020299134L142.1685,103.13993075166712L142.4115,103.30699234013498L142.623,103.47734005136138L142.893,103.66902458796606L143.172,103.87645789958859L143.1765,104.00240954246813L143.6175,104.22399429969009L143.86950000000002,104.44033868308077L144.0675,104.63564629770444L144.13500000000002,104.77515588552033L144.27,104.903504349889L144.4725,105.0474591800183L144.558,105.162091484583L144.63449999999997,105.2561528231203L145.3905,105.56224564287065L145.656,105.83349728925823L145.99349999999998,106.10753342714189L146.00699999999998,106.27640516781575L146.0475,106.39107692077019L146.34900000000002,106.55922308366054L146.421,106.68382488668296L146.8215,106.89043340472578L146.934,107.05141297512172L147.5685,107.35659663398813L147.717,107.58848456354787L147.75300000000001,107.7394392071874L148.0275,107.9201238351292L148.53150000000002,108.19383001410323L148.707,108.41556306431707L148.96349999999998,108.63261037617931L149.418,108.91155597796048L149.5035,109.10687943238024L150.138,109.43133601608673L150.5385,109.75664561527651L150.5745,109.96356680912385L150.822,110.16836565289462L151.137,110.39379850061871L151.27200000000002,110.57298000275375L151.3305,110.69951704116232L152.0685,111.01517532947601L152.07750000000001,111.20749060719972L152.3475,111.41044495747346L152.4735,111.57305494494751L152.8785,111.80176796941468L152.88750000000002,111.94190876242624L152.9325,112.04055373404684L153.54,112.29608395517424L153.5715,112.45957113695478L154.17,112.75066584383845L154.3995,112.99921824655173L154.593,113.21060654096549L154.8225,113.41121933900959L154.944,113.57062063441859L155.2095,113.75149386818917L155.547,113.96823759096293L155.7945,114.17755258808987L155.8665,114.3261875235863L156.024,114.46575656277899L156.051,114.55813288634796L156.5325,114.76738532947965L156.564,114.90298862199465L156.6405,115.0087592459151L156.744,115.10523146727256L156.82049999999998,115.18750439984741L156.9375,115.27415516120081L157.338,115.45363970483473L157.3875,115.57707194319444L157.5,115.68689732649571L157.752,115.83284231463261L157.806,115.93755162818742L157.8645,116.01894378997987L158.4045,116.23892535570128L158.598,116.43213959020095L158.6475,116.5637217262291L158.6565,116.64551658325809L158.6745,116.70028464829973L158.8545,116.79002915523083L159.003,116.89076924245535L159.075,116.97393687022316L160.2675,117.39906656713835L160.6095,117.76135019345014L160.66799999999998,117.99704077571391L160.884,118.20604853071626L161.5185,118.52957234226378L161.64000000000001,118.76154948637513L161.7525,118.93577210326369L161.79299999999998,119.05291294983651L161.82000000000002,119.13160230873996L161.85600000000002,119.19001799618587L162.0315,119.27965205090474L162.53549999999998,119.48989956881938L162.954,119.74564191384913L163.1025,119.94499896576288L163.4175,120.16187560922077L163.6965,120.37800185898645L163.8495,120.55478052707335L164.115,120.74248438524297L164.736,121.04555657871819L164.835,121.25769604167294L164.9745,121.42763990613393L165.1365,121.5791004813864L165.1545,121.675473095009L165.19050000000001,121.74428773484384L165.474,121.87204420702709L165.4875,121.95281259896588L165.96,122.14503819951753L166.0635,122.29180676465833L166.13549999999998,122.40172403291227L166.19850000000002,122.4867889825624L166.293,122.56648591523101L166.3965,122.64567280728456L166.47750000000002,122.71771813980045L166.5675,122.78819077144843L167.28300000000002,123.04650656738349L167.4405,123.24891399855494L167.6475,123.43260358779678L168.786,123.8836021046383L168.849,124.172981719407L169.065,124.41093238705353L169.2765,124.61659117647382L169.8615,124.9134405361118L170.154,125.17800025680675L170.1585,125.33806509895531L170.21249999999998,125.45004332933868L170.21699999999998,125.51855781201945L170.5635,125.66179071580028L170.85150000000002,125.83241196899408L170.9415,125.96121106105323L171.05849999999998,126.07281618549789L171.837,126.36740477920195L172.017,126.59659301066768L172.26,126.80477717761819L172.773,127.07843639599058L172.8405,127.26215899227128L172.863,127.37889912965733L172.92149999999998,127.4658554836681L172.989,127.53753291683816L174.159,127.91689899186744L174.195,128.1548166307039L174.3795,128.35029461277884L174.61800000000002,128.53562025304652L174.7395,128.6814241056205L174.86999999999998,128.80603809920316L174.8925,128.88720464418748L174.9015,128.93846295154344L174.9915,128.9947951458469L175.599,129.2007195386832L175.905,129.41062757076094L175.98600000000002,129.5593919413364L176.391,129.762500687862L176.7465,129.9839596099205L176.76899999999998,130.12312761176906L177.1425,130.3108963329352L177.59249999999997,130.54870647045516L177.642,130.705126630381L177.75,130.82892247316158L178.308,131.05742591685203L178.5105,131.25029437432377L178.839,131.4562511067968L179.154,131.6660832994013L179.451,131.87306759404115L179.595,132.0364874024012L179.694,132.1614762779366L179.72549999999998,132.24503490247076L179.766,132.30617873222278L179.775,132.34531058381387L179.78400000000002,132.37123524850838L179.856,132.40634715083976L180.0945,132.492093986911L180.2115,132.5752155994231L180.342,132.66037252981593L180.51749999999998,132.75884288115776L180.6345,132.84946306435353L180.783,132.9438087685193L180.981,133.05362053870866L181.70100000000002,133.312055761574L181.9935,133.54492404110724L182.0925,133.71092482088503L182.15099999999998,133.8260411476801L182.3715,133.95350678150118L182.48399999999998,134.05972696722105L182.61,134.1567253498071L182.6505,134.22560774204138L182.862,134.32265081852873L183.1725,134.46243566185353L183.4425,134.6170005077727L183.825,134.80952723918003L183.9375,134.9543107977369L184.113,135.08676508749676L184.2705,135.20706917753907L184.5045,135.33978018558676L184.5405,135.42870473005368L185.1435,135.63722463978127L185.3415,135.81304922322113L185.68349999999998,136.00586152446076L185.724,136.13186594767456L186.759,136.46943004681518L186.8805,136.70250569186916L187.1865,136.91905779879676L187.2585,137.0669951666875L187.344,137.1771199169447L187.5915,137.30490360484657L187.6275,137.3905332773495L187.7895,137.4821813944718L188.39249999999998,137.68634098383234L188.4915,137.83321754552392L188.50050000000002,137.92355898718515L188.514,137.98108564387053L188.568,138.02888367615316L188.631,138.07304611827237L188.72099999999998,138.12164221669417L188.74349999999998,138.15632032135238L188.757,138.18043871886994L188.98649999999998,138.251117198174L189.297,138.3693034828731L189.36,138.4555530809976L189.5265,138.5477775601715L189.77849999999998,138.6642012716236L189.8235,138.74494253521573L189.9225,138.81731679494428L190.65599999999998,139.03704394274104L191.24550000000002,139.30929956062525L191.367,139.5014522938364L191.376,139.6188751847605L191.5875,139.73933895475028L191.75400000000002,139.85088234770117L191.916,139.95592473424165L192.03750000000002,140.04747991697008L192.375,140.18140338670818L192.618,140.31839570191468L192.6405,140.40582507423736L193.221,140.59273613585341L193.419,140.7504823128977L194.2965,141.0456126756826L195.2415,141.43563832778887L195.24599999999998,141.67066036699703L195.30900000000003,141.8257589690198L195.34050000000002,141.9258558741595L195.696,142.0650985270571L195.83550000000002,142.17959597884604L196.03799999999998,142.29310310465488L197.12699999999998,142.59970052092706L197.28,142.81682926594874L197.4645,142.9869951209207L197.5455,143.10656847436903L197.595,143.18897936471112L198.117,143.35037738543434L198.207,143.4664190697373L198.3645,143.56957923050925L198.9225,143.74956267705286L199.071,143.8887888695144L199.07549999999998,143.97326969114005L199.8,144.17518689015742L200.034,144.3447698701674L200.15099999999998,144.47066089282953L200.484,144.61462778535798L200.6505,144.7350705721715L200.70899999999997,144.8192797484739L201.132,144.95578756825586L201.2085,145.05317112071194L201.25349999999997,145.12069661674624L201.267,145.16393880203003L201.654,145.26777001786016L202.08599999999998,145.41634814705122L202.275,145.54302159979343L202.482,145.65997147953152L202.518,145.73724582157914L202.63950000000003,145.80755201694797L202.7295,145.8674341289248L202.9995,145.95627468763067L203.2875,146.06571210064456L203.292,146.13224895480056L203.3775,146.18877343197335L203.562,146.258418991822L203.5665,146.3010759719161L203.625,146.33797150485404L203.787,146.3913357911469L203.9715,146.4587962098198L203.9985,146.5044481993085L204.16049999999998,146.5628344788372L204.3765,146.63903624261735L204.8535,146.7750365509807L204.9345,146.87188005268885L205.173,146.97472081176628L205.281,147.05661024357192L206.073,147.252376755309L206.10899999999998,147.37644361370715L206.325,147.49041847137954L206.478,147.58669647225744L206.649,147.6755290584207L206.7435,147.7459471199775L207.06300000000002,147.84581389892287L207.19799999999998,147.9299576229941L207.3195,148.0021838630989L207.333,148.04793145944205L207.351,148.07859484343444L207.5985,148.1410652249379L207.603,148.17934676454402L208.18800000000002,148.30550919118087L208.314,148.4032543618037L208.5435,148.50189703763846L208.6875,148.58607007748677L209.13299999999998,148.71335205373245L209.36249999999998,148.82896255962297L209.3895,148.90293131030944L209.41649999999998,148.95191244363198L209.439,148.9851317340895L209.5515,149.0241870550671L209.583,149.0529655921971L209.6505,149.0816736273576L209.65949999999998,149.10042270685886L209.7495,149.1268945909976L209.9475,149.17615242341793L210.0105,149.2162930443762L210.4785,149.31851168671517L211.10850000000002,149.483615527248L211.257,149.60690240407226L211.3245,149.69185589434247L211.3605,149.74867720650062L211.55849999999998,149.81484499161795L211.734,149.88284115171643L211.7385,149.9243626965158L211.9095,149.97672088320988L212.0355,150.02828157532278L212.0805,150.06639713411866L212.094,150.09141841748556L213.147,150.27197440533857L213.16049999999998,150.3824006022653L213.43949999999998,150.49173209739078L213.579,150.57874735622016L213.912,150.68175175432907L214.65,150.85447468831367L214.749,150.97281419048247L214.9605,151.075096875784L215.3115,151.1879608519021L215.352,151.26158743312317L215.3835,151.31035374044095L215.415,151.3441998538944L215.496,151.37628178624252L215.5545,151.40401711969835L215.784,151.45381103166002L215.88299999999998,151.49791965174015L216.62550000000002,151.6298024398327L216.8415,151.73915902503768L216.87300000000002,151.8091644228703L217.04399999999998,151.87493323484796L217.05749999999998,151.91626550252084L217.3365,151.97955614263222L217.69650000000001,152.0667049857293L218.2185,152.1893101890523L218.2725,152.2700804780705L218.4975,152.3484378608783L218.65949999999998,152.4168419109416L218.75400000000002,152.47030937311342L219.42,152.58886266718184L219.50099999999998,152.67038073745294L219.9645,152.7781759053633L220.10850000000002,152.8609572836607L221.17950000000002,153.04244222649032L221.3145,153.16759304746844L221.652,153.28298444141362L221.66549999999998,153.35382082975056L221.778,153.40963858564385L222.075,153.47801638569496L222.138,153.52639355553328L222.363,153.58152905585501L222.47099999999998,153.62706359483826L222.588,153.66781737200736L222.6285,153.69690542060027L222.66899999999998,153.71898688880339L222.6825,153.7337770620201L222.8535,153.7621042345244L223.3125,153.83067833239258L223.488,153.8912974725803L223.704,153.95145064806036L223.7625,153.99394784542724L223.7895,154.0223973310608L223.79399999999998,154.0399585325863L223.893,154.06128658906692L223.929,154.07799673020736L224.17200000000003,154.1142874246606L224.7795,154.20057476872813L224.8965,154.26458327765283L225.0675,154.32076205656688L225.207,154.36887221045748L225.297,154.40698440812005L225.4095,154.44135857723836L225.6525,154.48664467122765L225.909,154.53956140374856L226.116,154.59187345469923L226.737,154.6837933603943L226.92600000000002,154.757024488428L227.3895,154.84461983449484L227.57399999999998,154.914285569768L227.62349999999998,154.9606489944617L227.7135,154.99673691123934L227.7315,155.02003920122363L227.7855,155.03896058644233L228.078,155.07684278527623L228.411,155.12930402673865L228.618,155.1790099643598L229.33800000000002,155.27072689848723L229.392,155.33030419176367L229.509,155.3758573719333L230.7375,155.50239996639587L231.489,155.63562134700882L231.71849999999998,155.73253696359666L231.7725,155.794647216639L232.24949999999998,155.8663212307713L232.7535,155.94454732770004L233.4375,156.03741734260637L233.5095,156.09784935947474L233.595,156.13967068412506L233.5995,156.1650552987547L234.0585,156.20956091364917L234.081,156.2376743406645L234.14849999999998,156.25875860515163L234.16199999999998,156.27224991452204L234.2115,156.28342014148984L234.288,156.29485302847715L234.306,156.30282197827356L234.378,156.31202519943866L234.44549999999998,156.32167089035195L234.5085,156.3312881369335L234.6885,156.3479000063169L234.72,156.35974900645954L234.8055,156.37194327452235L235.3365,156.4100831628058L235.3725,156.4350096285967L235.38150000000002,156.4504752197522L235.4625,156.46432496857904L235.5705,156.47868145957074L236.07,156.5145586673096L236.4615,156.55664544653013L236.754,156.5967948871017L236.817,156.62404127008742L237.18599999999998,156.65850839655874L237.501,156.69415601264143L238.09050000000002,156.742315538174L238.25699999999998,156.77847975625858L238.5,156.81055476503383L239.04899999999998,156.85223039258946L239.355,156.88912842351263L239.39550000000003,156.9128085572564L239.42700000000002,156.92821014309808L239.61599999999999,156.94451496173932L239.6385,156.95512769412835L240.0705,156.97697007304626L240.21,156.99488647533022L240.23700000000002,157.0065569824226L240.4125,157.0194606022768L240.7995,157.03970748096944L241.2585,157.06577936506025L241.362,157.0844260694136L241.38,157.0961313361659L241.506,157.10673279218733L241.6275,157.11647383404895L241.6365,157.12256609162966L241.731,157.1287987435482L241.83450000000002,157.13531314162535L242.298,157.1510331346692L243.423,157.1849493095558L243.477,157.206325111746L243.5625,157.22074729987278L243.747,157.23272938455463L243.909,157.24270989235683L244.2105,157.25356543932838L244.4175,157.26317366389443L244.53449999999998,157.27059899651184L244.62900000000002,157.27634841541024L245.178,157.2864882629426L245.376,157.2946380729368L246.114,157.3056073980932L246.1635,157.31250528851115L246.3885,157.31793678450035L246.843,157.32308225354757L246.89249999999998,157.32631644941435L247.329,157.32905456913724L247.392,157.33073869731817L247.45499999999998,157.3317717986858L247.5,157.33239641254482" style="fill: none;" fill="none"></path></g></g></g></g><g opacity="0.2"><g><g><g><path stroke="rgb(0, 119, 187)" stroke-width="2px" d="M22.986,131.84533340483904L23.278499999999998,116.50533382097879L23.602500000000003,99.51333264758189L23.67,95.97333499789238L24.3135,62.22533078491688L24.597,47.35733113189539L24.799500000000002,39.333350623647384L24.925500000000003,39.33351180454096L25.0065,39.33371694386006L25.1865,39.33444958428542L25.4655,39.336339796582855L25.942500000000003,39.34168074528376L26.122500000000002,39.344384188453354L26.4015,39.34933683772883L26.491500000000002,39.351131806770965L27.072000000000003,39.3649713844061L27.1215,39.36633409559727L27.171000000000003,39.36772611240546L27.567,39.37989526987077L27.598499999999998,39.38093561927478L27.7425,39.38587361574174L27.796499999999998,39.38778580725194L27.8325,39.389082580804825L28.1385,39.400694931546845L28.147499999999997,39.40105392535527L28.224,39.404138341546066L28.696499999999997,39.42470355828604L28.881,39.43344395856064L29.0655,39.442579984664924L29.2275,39.45093208551407L29.2995,39.45474914213022L29.313000000000002,39.455467129747085L29.470499999999998,39.464039022723846L29.546999999999997,39.4683103164037L30.019499999999997,39.49619461099307L31.2345,39.57989877959093L31.3245,39.586785599589355L31.329,39.58713726699354L33.12,39.74394429723423L33.4665,39.7786055157582L33.489,39.780898680289596L33.5835,39.79062081873418L33.597,39.79202016194662L33.768,39.8098965883255L34.101,39.8456933995088L34.362,39.874647349119186L34.398,39.8787061770757L34.582499999999996,39.89972563087941L34.623000000000005,39.90439255038897L34.6905,39.91221715013187L34.730999999999995,39.916935354471214L34.9605,39.944035723805435L35.037,39.95320838193099L35.3025,39.985554456710815L35.882999999999996,40.05913353463014L36.378,40.12496127684912L36.4725,40.13785574833553L36.477,40.138471166292824L36.657000000000004,40.16331500311693L36.9,40.19745604693891L36.980999999999995,40.208987807234124L37.089,40.224483152230576L37.197,40.240110372503594L37.2105,40.24207384884358L37.606500000000004,40.30058983961742L37.8225,40.33327292899291L38.178,40.38822828729948L38.2545,40.40025091667971L38.3715,40.4187574138244L38.551500000000004,40.44754285613696L38.7045,40.47230610251427L38.7765,40.48405032853285L38.9475,40.51218372086685L39.0105,40.52263117333254L39.024,40.52488037943841L39.2085,40.55577582617601L39.5235,40.60942708452542L39.820499999999996,40.66104892889659L40.122,40.7144950479269L40.5585,40.79372278352578L40.608000000000004,40.80284415682157L40.995,40.875126461187996L41.049,40.885346795121826L41.318999999999996,40.93695398668449L41.3685,40.946507617831244L41.525999999999996,40.977088029185936L41.9355,41.057912920912116L41.9805,41.06690974533559L42.93,41.262158418695144L43.042500000000004,41.28597655892372L43.425,41.368010307351746L43.609500000000004,41.40817365547022L44.2485,41.55025461316109L44.2665,41.55432076752187L44.4735,41.601378262043006L45.36,41.808371161421135L45.4005,41.81804201503596L45.409499999999994,41.82019597788652L45.5985,41.86556839942932L45.616499999999995,41.86991295715173L45.702000000000005,41.89059539635976L45.846000000000004,41.92560095588367L45.904500000000006,41.93989477058253L46.016999999999996,41.967486009001746L46.1835,42.00857248405617L46.332,42.045482908686L46.6335,42.1211866438389L46.818,42.16800969342392L47.0475,42.226789434750884L48.006,42.47861260175706L48.4155,42.589314570029586L48.7485,42.680711463093765L48.901500000000006,42.72310936450959L48.96,42.739395961165435L49.3065,42.83660269280274L49.419,42.86845057209332L49.491,42.88890589276951L49.743,42.96095375219981L50.004,43.036305819948524L50.1255,43.071641067663826L50.1435,43.07688677310945L50.516999999999996,43.18659967680772L50.598000000000006,43.2105936507384L50.76,43.258801390727356L50.99849999999999,43.33029244343441L51.0075,43.33300321300825L51.1155,43.36559105912844L51.12,43.36695377031963L51.142500000000005,43.373759999871254L51.165,43.38057355582715L51.984,43.63229415317377L52.065,43.65758490065734L52.137,43.6801282465458L52.1595,43.687183573842056L52.199999999999996,43.699894885222115L52.789500000000004,43.88698194424312L52.8795,43.91587728261949L53.1135,43.99141251047453L53.2935,44.0499211748441L53.3295,44.061658074458435L53.64,44.16352439920108L53.964,44.27092948555947L53.9865,44.27843172351519L53.99550000000001,44.2814355492592L54.247499999999995,44.36583572626115L54.74250000000001,44.53361038366953L54.936,44.599907015760735L55.142999999999994,44.67126619319122L55.3905,44.757197588682175L55.592999999999996,44.82798530658086L55.9665,44.95969940225283L56.092499999999994,45.004471058646836L56.1105,45.01088166236878L56.1195,45.01408330102762L56.2815,45.07193991541863L56.448,45.13168674210708L56.673,45.21289260685444L56.722500000000004,45.230834970871605L56.902499999999996,45.296281740069404L57.276,45.433168277144446L57.289500000000004,45.43814290563265L57.4065,45.48134671151639L57.5775,45.544742087523154L57.699,45.58997530738514L57.852,45.6471578925848L58.032000000000004,45.714736645420395L58.4415,45.8697560330232L59.0535,46.10468451182049L59.814,46.40204128126304L60.291,46.59160466492177L60.9705,46.86567812164625L60.997499999999995,46.8766677280267L61.2855,46.994337106744446L61.47,47.07016539076964L61.627500000000005,47.135172575712204L61.7625,47.19109501938025L61.8885,47.24344950417677L61.9965,47.28846293191116L62.0055,47.29221405088903L62.208,47.376943916082396L62.253,47.39583138624827L62.4195,47.465879137317344L62.451,47.479169234633446L63.2655,47.82615506649018L63.549,47.9484913647175L63.6885,48.0089854846398L64.13850000000001,48.20545766750973L64.314,48.28262668351332L64.368,48.30643749733767L64.476,48.35413238902886L64.62,48.417916064461075L65.4255,48.778477723399796L65.466,48.79677908122541L66.024,49.05052909255028L66.2085,49.13510510325433L66.393,49.22001080214978L66.39750000000001,49.222084174553565L66.4785,49.2594708154599L66.771,49.395001967748016L66.90599999999999,49.4578405370315L67.0275,49.51453957955042L67.131,49.56295978526275L67.2705,49.628377248843506L67.275,49.63049457967283L67.3245,49.65375591317813L67.383,49.681273887554816L67.41,49.69398519893487L67.473,49.723679115374885L67.788,49.87271283070246L67.9095,49.930452222625426L68.049,49.996917362014464L68.1255,50.03345414002737L68.36399999999999,50.14770208795865L68.4405,50.184458658099174L68.472,50.19961698849996L69.0435,50.47618874907494L69.05699999999999,50.48276053369045L69.0615,50.4849511285623L69.282,50.59252472221853L69.507,50.70277977983158L69.5655,50.73152126371862L69.759,50.82683045665423L69.8355,50.86460539698601L70.02900000000001,50.96040545900663L70.398,51.14407108724118L70.407,51.148569499452904L70.68599999999999,51.28830600778263L70.73100000000001,51.31091529130937L70.7625,51.32674765090149L72.108,52.01181040704251L72.1305,52.02340810497603L72.1665,52.04197321335476L72.2475,52.083792328834534L72.4275,52.17694023251535L72.5355,52.23297257224719L72.5625,52.246995309988655L72.9585,52.45345338185629L72.9855,52.46758601566155L73.494,52.734926506876945L73.7775,52.88498591880005L73.845,52.92082668840886L73.998,53.0022083868583L75.5415,53.834964126348495L75.69,53.916199296712875L75.816,53.98527996242048L75.906,54.03471121191979L76.3785,54.29538467526435L76.626,54.432710796594606L76.8465,54.55550133188565L77.292,54.80489213267961L77.31,54.815002570549645L77.562,54.95687106251716L77.8635,55.127327183882386L77.9265,55.16304340461888L78.0975,55.26015489300091L78.29549999999999,55.37291558086871L78.30449999999999,55.37805139025051L78.471,55.47314811746278L78.6465,55.57363707820573L78.6645,55.583959981799126L78.99749999999999,55.77540625135102L79.209,55.89748612542946L79.6905,56.17682726681231L80.559,56.685587430993714L80.577,56.69619606435299L80.7525,56.79979142049948L80.8785,56.874322930971765L80.89649999999999,56.88497552275658L81.8505,57.45366567373275L82.3725,57.767968416213975L82.575,57.89049520095189L82.7505,57.99694785475731L82.8855,58.07900358239808L83.05199999999999,58.18040101726849L83.3535,58.36458682020505L83.47949999999999,58.441770489017166L83.5155,58.463852271437645L83.808,58.64359827339649L83.89349999999999,58.69626779357591L83.91600000000001,58.71014400323231L84.6135,59.14208681881428L84.82499999999999,59.27381556729475L85.374,59.61737264196078L85.4145,59.64280991752941L85.5315,59.71635968983172L85.7115,59.82972846925258L86.301,60.20273036261399L86.35050000000001,60.23417528967061L86.4315,60.285657932360955L86.66550000000001,60.43468432128428L86.697,60.45478064815203L87.0975,60.71089708805083L87.12899999999999,60.731088658173874L87.327,60.8581944455703L87.39,60.89870213468869L87.912,61.23545297980308L88.101,61.357869868477174L88.308,61.49225810170172L88.40700000000001,61.55663521587848L88.857,61.85018225510915L89.19,62.068347920974084L89.33399999999999,62.162939126292855L89.3925,62.201410075028726L89.4105,62.213256870706864L89.667,62.38225503762562L89.7345,62.42680690189202L90.09,62.661984478433915L90.29700000000001,62.79933990538119L90.3015,62.80232907831668L90.3195,62.81428577005863L90.4995,62.933999215563134L90.5625,62.97595020631948L90.6255,63.01793050269284L90.693,63.06294393042723L90.83699999999999,63.15907368063927L90.9,63.201171199480676L91.5075,63.6085778872172L91.6335,63.6933956692616L91.674,63.720686525106416L91.89,63.8664013793071L92.0565,63.9789422750473L92.2095,64.08253030478954L92.74950000000001,64.44939267138639L92.87549999999999,64.53528010845183L93.2085,64.76277228693165L93.4245,64.9107363472382L93.57300000000001,65.01263930400211L93.69449999999999,65.09612368047237L93.93299999999999,65.26028642058372L94.15350000000001,65.41238989929356L94.6485,65.75500186781086L94.8465,65.89248917003472L95.03099999999999,66.02084044615427L95.337,66.23418533802032L95.34150000000001,66.23732103904088L95.589,66.41032674908638L95.913,66.6373939961195L96.0615,66.74168536067008L96.26849999999999,66.88729764521122L96.354,66.94752068817616L96.426,66.99826336403687L97.79400000000001,67.96855769058067L97.812,67.98140087723732L98.2575,68.29988699654737L98.4015,68.40308672686416L98.4645,68.44827598830064L98.47800000000001,68.4579688211282L98.586,68.53549683094025L98.766,68.66486647725105L99.3465,69.08338732024033L99.5445,69.22658189137775L99.5715,69.24612873792647L99.57600000000001,69.24938898781934L100.188,69.69354491929212L100.233,69.72629394630589L100.7775,70.12339238325754L100.944,70.24515722195305L101.538,70.68080719808735L101.84849999999999,70.90931042035419L102.1005,71.09514466424783L102.141,71.12504372000694L102.29400000000001,71.23807548483211L102.4605,71.36122501393159L102.96900000000001,71.73824177682398L103.21199999999999,71.91889625291029L103.527,72.15353900194168L104.049,72.54350152115026L104.08500000000001,72.57044803599514L104.103,72.5839212934176L104.121,72.59740187724431L104.43599999999999,72.83351723353067L104.7465,73.0667606393496L104.9985,73.25641193985939L105.327,73.50411034127076L105.435,73.58566054701805L105.6105,73.71830509603024L105.669,73.76255657772222L105.7095,73.79319560031097L105.8535,73.90221249560514L106.2765,74.22303573787211L106.3575,74.28457020719846L106.92,74.71273992458978L106.947,74.73332712054251L106.9605,74.74362804492314L107.0145,74.78481708963712L107.08200000000001,74.83632903794448L107.57249999999999,75.21127975483734L107.964,75.5113399674495L108.49499999999999,75.91943533718586L108.51299999999999,75.93329689403373L108.94500000000001,76.26626731455326L109.2555,76.5060971577962L109.44,76.64880818625291L109.701,76.85093635320663L109.8315,76.95210666954517L109.89450000000001,77.00097378591695L110.24549999999999,77.27354532976943L110.259,77.28404406706491L110.4615,77.44153977930546L110.781,77.69038842618465L110.94749999999999,77.82023428877193L111.78899999999999,78.478204001983L111.879,78.54874262213706L112.032,78.6687344710032L112.104,78.72522837420303L112.1535,78.76408762236436L112.4235,78.97617969910303L112.44149999999999,78.9903269857168L112.5,79.03632215162116L112.5675,79.08940927684307L113.904,80.1440744747718L114.1335,80.32583523790042L114.2775,80.43998061617215L114.318,80.47209224601586L114.40350000000001,80.53991277019182L114.4845,80.60418731470901L114.723,80.79358219106992L115.1055,81.09773053725559L115.119,81.10847104589143L115.2855,81.24102767805257L115.4115,81.34140674273173L115.4925,81.40596701701482L115.50150000000001,81.41313956677912L115.92450000000001,81.75063770512739L116.289,82.04193553825219L116.766,82.423787727952L116.78399999999999,82.43821341792743L116.8605,82.49952809512614L116.883,82.5175657023986L116.91,82.53920790056387L117.00450000000001,82.61498489975928L117.1665,82.74496263762315L117.23849999999999,82.80275331437588L117.585,83.08109806478022L118.053,83.45761663218339L118.206,83.5808540781339L118.404,83.74043781558672L118.7595,84.02724456290404L118.89,84.13262023528416L119.62349999999999,84.7257805764675L119.67299999999999,84.76586333413918L119.69550000000001,84.78408410151799L119.79899999999999,84.86792014539242L120.0465,85.06851709385712L120.0555,85.07581419249374L120.6585,85.56522532304128L120.807,85.68589120109876L121.788,86.48441065351169L121.896,86.57245937983194L122.1615,86.78903521597384L122.23349999999999,86.84779297808807L122.535,87.09398214022318L122.78699999999999,87.29990538458028L122.886,87.38084017237027L123.2055,87.64219499131043L123.2145,87.64955802758533L123.381,87.78584379951158L124.6635,88.8375124981006L124.90650000000001,89.03713503479958L125.019,89.12958693007627L125.649,89.64776152372359L126.324,90.20370373129845L126.4275,90.2890197088321L126.4815,90.33353494107723L127.3455,91.04642338057359L127.4895,91.1653455744187L127.83149999999999,91.4479030072689L127.836,91.45161749422549L128.2545,91.79759960869946L128.655,92.12891426185766L128.664,92.13636521498361L128.907,92.33748233815034L128.9205,92.34866243104139L130.8195,93.92265979448953L132.2055,95.07351335386433L132.61499999999998,95.41379552582899L132.633,95.42875604331493L132.7185,95.49982216457525L133.2315,95.9262738401691L133.67249999999999,96.29297502587238L133.7355,96.34536614269018L133.9155,96.49507022400697L134.2305,96.7570770929257L134.298,96.81322299192348L134.442,96.93301336467265L134.4735,96.9592162494858L134.7255,97.16886130720377L134.81550000000001,97.24373715867598L134.8245,97.2512247438232L134.964,97.3672896400094L135.243,97.59942675878604L135.5085,97.82033982624611L135.846,98.10117189089455L136.125,98.33333465208611L136.7955,98.89125865201154L137.0025,99.06349875281252L137.106,99.14961330840983L137.925,99.83098355680704L138.168,100.03311172376074L138.213,100.07054232309261L138.222,100.0780262450377L138.411,100.23522157470384L138.6675,100.44853716095288L139.086,100.79651572058597L139.131,100.8339280039072L139.185,100.87882054597138L139.941,101.50715861717859L139.98149999999998,101.54080879191555L140.01749999999998,101.57071883728106L140.0535,101.60063254584868L140.19299999999998,101.7165252715349L140.68800000000002,102.12766109903653L140.80949999999999,102.2285493488113L140.86800000000002,102.27711974581082L140.877,102.28459267814954L141.201,102.55354864150286L141.399,102.71786889930566L141.9795,103.19942612449327L142.146,103.33748854945102L142.1685,103.3561415746808L142.4115,103.55758472283681L142.623,103.73286161820093L142.893,103.95655139287312L143.172,104.18760786702236L143.1765,104.19133700678744L143.6175,104.55637143552303L143.86950000000002,104.76485525816678L144.0675,104.92860771963993L144.13500000000002,104.98442026724418L144.27,105.09602704644202L144.4725,105.26339142521222L144.558,105.33403994143009L144.63449999999997,105.39724483092625L145.3905,106.02138487249613L145.656,106.2403747588396L145.99349999999998,106.5185876339674L146.00699999999998,106.52971277882656L146.0475,106.56308455020189L146.34900000000002,106.81144232799609L146.421,106.87072759121656L146.8215,107.20034618179002L146.934,107.29288233071566L147.5685,107.81437212228774L147.717,107.93631645788749L147.75300000000001,107.96587117264666L148.0275,108.19115077704191L148.53150000000002,108.60438928256431L148.707,108.74816263963778L148.96349999999998,108.95818134397268L149.418,109.32997438063224L149.5035,109.39986461400986L150.138,109.91802089164652L150.5385,110.24461001406111L150.5745,110.27394859989485L150.822,110.4755639185508L151.137,110.73194777220486L151.27200000000002,110.84175225595632L151.3305,110.88932259877522L152.0685,111.48866276194651L152.07750000000001,111.49596352378526L152.3475,111.71487648288408L152.4735,111.81696992615858L152.8785,112.14483750611544L152.88750000000002,112.15211995194353L152.9325,112.18852119147778L153.54,112.67937928686538L153.5715,112.70480190962552L154.17,113.18730790416397L154.3995,113.3720468506217L154.593,113.52768898258606L154.8225,113.71213853607573L154.944,113.80972257753214L155.2095,114.02280371884503L155.547,114.29335317512353L155.7945,114.49152508378029L155.8665,114.54913992683092L156.024,114.67511012156804L156.051,114.69669737170139L156.5325,115.08126399417719L156.564,115.10639356076717L156.6405,115.16741518179573L156.744,115.24993979930878L156.82049999999998,115.3109137987097L156.9375,115.4041313032309L157.338,115.72286652028559L157.3875,115.76222030073404L157.5,115.85163540144761L157.752,116.05175979683796L157.806,116.09461559851964L157.8645,116.14103203266859L158.4045,116.56889770428339L158.598,116.72196094195046L158.6475,116.76109493027128L158.6565,116.76820886880158L158.6745,116.78243674586216L158.8545,116.92464591562747L159.003,117.04187937329212L159.075,117.09868831187485L160.2675,118.03676111251116L160.6095,118.30477563291788L160.66799999999998,118.35057664910953L160.884,118.51956016321977L161.5185,119.0148580595851L161.64000000000001,119.10951520254214L161.7525,119.19710602859655L161.79299999999998,119.22862421969572L161.82000000000002,119.24963634709518L161.85600000000002,119.27764152735472L162.0315,119.41410313298304L162.53549999999998,119.80527084569134L162.954,120.12925543139376L163.1025,120.24403454363346L163.4175,120.48719057440756L163.6965,120.70219123363495L163.8495,120.81994852920374L164.115,121.02404017249742L164.736,121.50016486893095L164.835,121.57590523610511L164.9745,121.68255570282538L165.1365,121.80629134426513L165.1545,121.82003201544285L165.19050000000001,121.84750969459613L165.474,122.06367891530195L165.4875,122.07396518687406L165.96,122.43337660034499L166.0635,122.51195961236954L166.13549999999998,122.56659993529318L166.19850000000002,122.61438640703757L166.293,122.68603131423393L166.3965,122.7644531453649L166.47750000000002,122.82578613857427L166.5675,122.89389971892038L167.28300000000002,123.43398026128611L167.4405,123.55252514531215L167.6475,123.7081379716595L168.786,124.56009987990059L168.849,124.60705114156008L169.065,124.76785838852327L169.2765,124.92507936060429L169.8615,125.35871457556883L170.154,125.57483983784913L170.1585,125.57816236217816L170.21249999999998,125.61801067491372L170.21699999999998,125.62132953604063L170.5635,125.87664007147154L170.85150000000002,126.08834384878476L170.9415,126.15440969914198L171.05849999999998,126.24022387216486L171.837,126.809287669758L172.017,126.94037535786627L172.26,127.11705342804392L172.773,127.4889252235492L172.8405,127.53774288669229L172.863,127.55400933573642L172.92149999999998,127.59629001468419L172.989,127.64504906659324L174.159,128.48594810441136L174.195,128.51169308895865L174.3795,128.64351158589125L174.61800000000002,128.81360871344805L174.7395,128.90012988448143L174.86999999999998,128.9929590895772L174.8925,129.00895446166396L174.9015,129.0153504125774L174.9915,129.0792934373021L175.599,129.50960612793764L175.905,129.72548961887756L175.98600000000002,129.78253849719962L176.391,130.0671638076504L176.7465,130.31614799300831L176.76899999999998,130.33187961454192L177.1425,130.59254941468438L177.59249999999997,130.90542167673507L177.642,130.93975687026978L177.75,131.01461623733243L178.308,131.40018108238777L178.5105,131.53959706053138L178.839,131.76518620550632L179.154,131.980831588308L179.451,132.18354403600097L179.595,132.2816171149413L179.694,132.3489595912397L179.72549999999998,132.37037283927202L179.766,132.3978944768508L179.775,132.40400836120048L179.78400000000002,132.41012224555016L179.856,132.45901500433683L180.0945,132.62071424101788L180.2115,132.69989801819125L180.342,132.78810792540511L180.51749999999998,132.90654840817055L180.6345,132.98539333914718L180.783,133.0853273247679L180.981,133.21833819399276L181.70100000000002,133.69970859587193L181.9935,133.89422646040717L182.0925,133.9599259905517L182.15099999999998,133.9987156378726L182.3715,134.1447052322328L182.48399999999998,134.21905724580088L182.61,134.3022229236861L182.6505,134.32893133039275L182.862,134.46821543325981L183.1725,134.67211292684078L183.4425,134.84884777665138L183.825,135.09831733629107L183.9375,135.1714861355722L184.113,135.28544652213654L184.2705,135.38752531260252L184.5045,135.5388466976583L184.5405,135.56209154675403L185.1435,135.95000450437266L185.3415,136.07678609838086L185.68349999999998,136.29507997632027L185.724,136.3208725824952L186.759,136.97577619552612L186.8805,137.05211915945011L187.1865,137.24388595918813L187.2585,137.28890121852356L187.344,137.3423070423305L187.5915,137.49657913669944L187.6275,137.51897778610387L187.7895,137.6196535701553L188.39249999999998,137.9925803678731L188.4915,138.05353238806129L188.50050000000002,138.05907114967704L188.514,138.06737562889853L188.568,138.1005807245771L188.631,138.13928978145123L188.72099999999998,138.19453636432686L188.74349999999998,138.20833747833967L188.757,138.2166163151463L188.98649999999998,138.35713491713008L189.297,138.5465829099218L189.36,138.5849274781843L189.5265,138.68611427893242L189.77849999999998,138.8388368388017L189.8235,138.86605443060398L189.9225,138.92587818453708L190.65599999999998,139.3666346644362L191.24550000000002,139.71768298745155L191.367,139.78968139365315L191.376,139.7950095211466L191.5875,139.920034609735L191.75400000000002,140.01819743712744L191.916,140.1134883140524L192.03750000000002,140.1848126910627L192.375,140.38228859131536L192.618,140.5238841747244L192.6405,140.53696913272142L193.221,140.87310272827744L193.419,140.98710157846412L194.2965,141.48830821986L195.2415,142.0206768059482L195.24599999999998,142.02319342580935L195.30900000000003,142.05840687205395L195.34050000000002,142.07600123186907L195.696,142.27396250640354L195.83550000000002,142.35134215652943L196.03799999999998,142.46336379336813L197.12699999999998,143.05959664533535L197.28,143.14252238348126L197.4645,143.24224390337864L197.5455,143.28592850454152L197.595,143.31259570022425L198.117,143.5924744165192L198.207,143.64048159619173L198.3645,143.7243194716672L198.9225,144.01953784686825L199.071,144.09762815820673L199.07549999999998,144.09999092357853L199.8,144.47806268868348L200.034,144.59914434018233L200.15099999999998,144.65949742682278L200.484,144.83057812415063L200.6505,144.91573475239176L200.70899999999997,144.9455935129275L201.132,145.1605492979288L201.2085,145.19924644939601L201.25349999999997,145.22198486079773L201.267,145.22880207995573L201.654,145.4235168416053L202.08599999999998,145.63921534083784L202.275,145.73303177890676L202.482,145.83539629913867L202.518,145.85315733465055L202.63950000000003,145.91301131000122L202.7295,145.95725729689002L202.9995,146.0895355256895L203.2875,146.22986822016537L203.292,146.23205423603454L203.3775,146.2735601477325L203.562,146.36288733159503L203.5665,146.36506144205728L203.625,146.3933148042609L203.787,146.47138222058615L203.9715,146.55998683782914L203.9985,146.57292618354163L204.16049999999998,146.65041389813024L204.3765,146.75333888828754L204.8535,146.97903701352575L204.9345,147.0171453052511L205.173,147.12898195038238L205.281,147.1794443912804L206.073,147.54602652291456L206.10899999999998,147.5625439013044L206.325,147.66138075788817L206.478,147.7311134735743L206.649,147.80877793766558L206.7435,147.8515742123127L207.06300000000002,147.99561406734088L207.19799999999998,148.05617320910096L207.3195,148.11052322325608L207.333,148.11655285395682L207.351,148.12458991942304L207.5985,148.23477079719305L207.603,148.23676907395324L208.18800000000002,148.4947528311362L208.314,148.54987211773792L208.5435,148.6498610513906L208.6875,148.71232963725924L209.13299999999998,148.90427501810095L209.36249999999998,149.0023783184588L209.3895,149.01388443633914L209.41649999999998,149.02538414361578L209.439,149.0349606697758L209.5515,149.08277003653347L209.583,149.09613339789212L209.6505,149.12473568009835L209.65949999999998,149.12854632611075L209.7495,149.16660241720575L209.9475,149.25003917204836L210.0105,149.27650397581357L210.4785,149.47183965022367L211.10850000000002,149.73127128804725L211.257,149.79183271930864L211.3245,149.8192861297478L211.3605,149.83390917473784L211.55849999999998,149.91409666929394L211.734,149.98483539186418L211.7385,149.98664501371482L211.9095,150.05525816325098L212.0355,150.1056226134921L212.0805,150.12357047231248L212.094,150.12895034253597L213.147,150.54280838711807L213.16049999999998,150.54803989765546L213.43949999999998,150.65572934007895L213.579,150.70927024446428L213.912,150.8362583514924L214.65,151.11355908929062L214.749,151.15032344373566L214.9605,151.22852090373635L215.3115,151.3572568160792L215.352,151.37202730495483L215.3835,151.38350320141762L215.415,151.39496902407456L215.496,151.42440468476465L215.5545,151.44562011988214L215.784,151.5285018996025L215.88299999999998,151.5640825818603L216.62550000000002,151.82762662197155L216.8415,151.90319390284517L216.87300000000002,151.91417251961926L217.04399999999998,151.97358645281443L217.05749999999998,151.97826390403011L217.3365,152.07449210279933L217.69650000000001,152.19742825037488L218.2185,152.37321799403676L218.2725,152.39123591159782L218.4975,152.46597393509L218.65949999999998,152.51944798603654L218.75400000000002,152.55051056637117L219.42,152.76669260828444L219.50099999999998,152.79265784285963L219.9645,152.93986865722886L220.10850000000002,152.98512935110676L221.17950000000002,153.3146696407348L221.3145,153.3553192789356L221.652,153.4560715323314L221.66549999999998,153.46007541225603L221.778,153.49336521948376L222.075,153.58058308577165L222.138,153.5989593102907L222.363,153.6642323063376L222.47099999999998,153.6953654033132L222.588,153.72894803776094L222.6285,153.74053749348968L222.66899999999998,153.75210909110805L222.6825,153.7559623218452L222.8535,153.80459499328086L223.3125,153.93353947919482L223.488,153.98222618286187L223.704,154.04168041128045L223.7625,154.05769364147756L223.7895,154.06507155951113L223.79399999999998,154.06630033487454L223.893,154.09327867378792L223.929,154.10306194191799L224.17200000000003,154.16872346634045L224.7795,154.33000578482944L224.8965,154.36059604103988L225.0675,154.40503022493795L225.207,154.4410374412934L225.297,154.4641527046139L225.4095,154.49291983091584L225.6525,154.55457381221154L225.909,154.61893650252992L226.116,154.67034153112522L226.737,154.82167321893698L226.92600000000002,154.86687118047848L227.3895,154.97601285359514L227.57399999999998,155.01878417267773L227.62349999999998,155.03019413150227L227.7135,155.05086878640577L227.7315,155.05499263620004L227.7855,155.06734266427037L228.078,155.1336660835271L228.411,155.20799588893232L228.618,155.25356887079155L229.33800000000002,155.40830229967833L229.392,155.4196701316784L229.509,155.44418714218773L230.7375,155.69221385808973L231.489,155.83545341792828L231.71849999999998,155.87791038847837L231.7725,155.8878125962025L232.24949999999998,155.97383225196972L232.7535,156.06188647309318L233.4375,156.17672236496583L233.5095,156.1884973847773L233.595,156.20240267110057L233.5995,156.20313222069913L234.0585,156.2763193359909L234.081,156.27984448118755L234.14849999999998,156.2903850018823L234.16199999999998,156.29248687857762L234.2115,156.30017548194155L234.288,156.31200235895813L234.306,156.31477540296814L234.378,156.32583003118634L234.44549999999998,156.3361394267219L234.5085,156.3457140068058L234.6885,156.372817810392L234.72,156.37752250667353L234.8055,156.3902346766166L235.3365,156.46729299523093L235.3725,156.4723993272831L235.38150000000002,156.47367360648545L235.4625,156.48509959181925L235.5705,156.50021619605832L236.07,156.5683744789179L236.4615,156.6197756153609L236.754,156.6570190479591L236.817,156.66491084456598L237.18599999999998,156.71020908626573L237.501,156.74762743676547L238.09050000000002,156.8145548264729L238.25699999999998,156.83272608338547L238.5,156.85866727819666L239.04899999999998,156.91474383392293L239.355,156.94447546989736L239.39550000000003,156.94832875787202L239.42700000000002,156.95131252186061L239.61599999999999,156.96897218970116L239.6385,156.97104679271192L240.0705,157.00973364142314L240.21,157.02176107875616L240.23700000000002,157.02406274306122L240.4125,157.0388160320581L240.7995,157.07007779900837L241.2585,157.10488719119653L241.362,157.11239612594363L241.38,157.1136892362944L241.506,157.12263497621947L241.6275,157.13108539684134L241.6365,157.13170447800076L241.731,157.138147721426L241.83450000000002,157.14508473874108L242.298,157.174613124235L243.423,157.2358235718857L243.477,157.2383888150313L243.5625,157.24238058206296L243.747,157.2507025115774L243.909,157.2576806540601L244.2105,157.26984875978573L244.4175,157.27758600074353L244.53449999999998,157.28173699543794L244.62900000000002,157.28497254375787L245.178,157.30169803424118L245.376,157.30686278792805L246.114,157.3220613858278L246.1635,157.32285212413808L246.3885,157.3260840284841L246.843,157.33080045711841L246.89249999999998,157.3311677432145L247.329,157.33316174872158L247.392,157.33326488958963L247.45499999999998,157.33332145073723L247.5,157.33333333333331" style="fill: none;" fill="none"></path></g></g></g></g></g></g><g transform="translate(60, 177)" clip-path="url(#clip_1)"><clipPath id="clip_1"><rect width="270" height="23"></rect></clipPath><g><g><line x1="0" y1="0" x2="0" y2="5" style="visibility: inherit;" fill="rgb(0, 0, 0)" stroke="rgb(204, 204, 204)" stroke-width="1px"></line><line x1="22.5" y1="0" x2="22.5" y2="5" style="visibility: inherit;" fill="rgb(0, 0, 0)" stroke="rgb(204, 204, 204)" stroke-width="1px"></line><line x1="45" y1="0" x2="45" y2="5" style="visibility: inherit;" fill="rgb(0, 0, 0)" stroke="rgb(204, 204, 204)" stroke-width="1px"></line><line x1="67.5" y1="0" x2="67.5" y2="5" style="visibility: inherit;" fill="rgb(0, 0, 0)" stroke="rgb(204, 204, 204)" stroke-width="1px"></line><line x1="90" y1="0" x2="90" y2="5" style="visibility: inherit;" fill="rgb(0, 0, 0)" stroke="rgb(204, 204, 204)" stroke-width="1px"></line><line x1="112.5" y1="0" x2="112.5" y2="5" style="visibility: inherit;" fill="rgb(0, 0, 0)" stroke="rgb(204, 204, 204)" stroke-width="1px"></line><line x1="135" y1="0" x2="135" y2="5" style="visibility: inherit;" fill="rgb(0, 0, 0)" stroke="rgb(204, 204, 204)" stroke-width="1px"></line><line x1="157.5" y1="0" x2="157.5" y2="5" style="visibility: inherit;" fill="rgb(0, 0, 0)" stroke="rgb(204, 204, 204)" stroke-width="1px"></line><line x1="180" y1="0" x2="180" y2="5" style="visibility: inherit;" fill="rgb(0, 0, 0)" stroke="rgb(204, 204, 204)" stroke-width="1px"></line><line x1="202.5" y1="0" x2="202.5" y2="5" style="visibility: inherit;" fill="rgb(0, 0, 0)" stroke="rgb(204, 204, 204)" stroke-width="1px"></line><line x1="225" y1="0" x2="225" y2="5" style="visibility: inherit;" fill="rgb(0, 0, 0)" stroke="rgb(204, 204, 204)" stroke-width="1px"></line><line x1="247.5" y1="0" x2="247.5" y2="5" style="visibility: inherit;" fill="rgb(0, 0, 0)" stroke="rgb(204, 204, 204)" stroke-width="1px"></line><line x1="270" y1="0" x2="270" y2="5" style="visibility: inherit;" fill="rgb(0, 0, 0)" stroke="rgb(204, 204, 204)" stroke-width="1px"></line></g><g transform="translate(0, 8)"><text x="0" y="0" dx="0em" dy="0.95em" style="text-anchor: middle; visibility: hidden; font-family: Roboto, sans-serif; font-size: 12px; font-weight: 200;" fill="rgb(255, 255, 255)" stroke="none" stroke-width="1px">-5k</text><text x="22.5" y="0" dx="0em" dy="0.95em" style="text-anchor: middle; visibility: inherit; font-family: Roboto, sans-serif; font-size: 12px; font-weight: 200;" fill="rgb(255, 255, 255)" stroke="none" stroke-width="1px">0</text><text x="45" y="0" dx="0em" dy="0.95em" style="text-anchor: middle; visibility: hidden; font-family: Roboto, sans-serif; font-size: 12px; font-weight: 200;" fill="rgb(255, 255, 255)" stroke="none" stroke-width="1px">5k</text><text x="67.5" y="0" dx="0em" dy="0.95em" style="text-anchor: middle; visibility: inherit; font-family: Roboto, sans-serif; font-size: 12px; font-weight: 200;" fill="rgb(255, 255, 255)" stroke="none" stroke-width="1px">10k</text><text x="90" y="0" dx="0em" dy="0.95em" style="text-anchor: middle; visibility: hidden; font-family: Roboto, sans-serif; font-size: 12px; font-weight: 200;" fill="rgb(255, 255, 255)" stroke="none" stroke-width="1px">15k</text><text x="112.5" y="0" dx="0em" dy="0.95em" style="text-anchor: middle; visibility: inherit; font-family: Roboto, sans-serif; font-size: 12px; font-weight: 200;" fill="rgb(255, 255, 255)" stroke="none" stroke-width="1px">20k</text><text x="135" y="0" dx="0em" dy="0.95em" style="text-anchor: middle; visibility: hidden; font-family: Roboto, sans-serif; font-size: 12px; font-weight: 200;" fill="rgb(255, 255, 255)" stroke="none" stroke-width="1px">25k</text><text x="157.5" y="0" dx="0em" dy="0.95em" style="text-anchor: middle; visibility: inherit; font-family: Roboto, sans-serif; font-size: 12px; font-weight: 200;" fill="rgb(255, 255, 255)" stroke="none" stroke-width="1px">30k</text><text x="180" y="0" dx="0em" dy="0.95em" style="text-anchor: middle; visibility: hidden; font-family: Roboto, sans-serif; font-size: 12px; font-weight: 200;" fill="rgb(255, 255, 255)" stroke="none" stroke-width="1px">35k</text><text x="202.5" y="0" dx="0em" dy="0.95em" style="text-anchor: middle; visibility: inherit; font-family: Roboto, sans-serif; font-size: 12px; font-weight: 200;" fill="rgb(255, 255, 255)" stroke="none" stroke-width="1px">40k</text><text x="225" y="0" dx="0em" dy="0.95em" style="text-anchor: middle; visibility: hidden; font-family: Roboto, sans-serif; font-size: 12px; font-weight: 200;" fill="rgb(255, 255, 255)" stroke="none" stroke-width="1px">45k</text><text x="247.5" y="0" dx="0em" dy="0.95em" style="text-anchor: middle; visibility: inherit; font-family: Roboto, sans-serif; font-size: 12px; font-weight: 200;" fill="rgb(255, 255, 255)" stroke="none" stroke-width="1px">50k</text><text x="270" y="0" dx="0em" dy="0.95em" style="text-anchor: middle; visibility: hidden; font-family: Roboto, sans-serif; font-size: 12px; font-weight: 200;" fill="rgb(255, 255, 255)" stroke="none" stroke-width="1px">55k</text></g><line x1="0" y1="0" x2="270" y2="0" fill="rgb(0, 0, 0)" stroke="rgb(204, 204, 204)" stroke-width="1px"></line></g></g></g></g></svg>