<svg viewBox="0 0 330 200" xmlns="http://www.w3.org/2000/svg"><g><g><g><g><g><line x1="40" y1="177" x2="35" y2="177" style="visibility: inherit;" fill="rgb(0, 0, 0)" stroke="rgb(204, 204, 204)" stroke-width="1px"></line><line x1="40" y1="157.33333333333331" x2="35" y2="157.33333333333331" style="visibility: inherit;" fill="rgb(0, 0, 0)" stroke="rgb(204, 204, 204)" stroke-width="1px"></line><line x1="40" y1="137.66666666666666" x2="35" y2="137.66666666666666" style="visibility: inherit;" fill="rgb(0, 0, 0)" stroke="rgb(204, 204, 204)" stroke-width="1px"></line><line x1="40" y1="117.99999999999997" x2="35" y2="117.99999999999997" style="visibility: inherit;" fill="rgb(0, 0, 0)" stroke="rgb(204, 204, 204)" stroke-width="1px"></line><line x1="40" y1="98.33333333333334" x2="35" y2="98.33333333333334" style="visibility: inherit;" fill="rgb(0, 0, 0)" stroke="rgb(204, 204, 204)" stroke-width="1px"></line><line x1="40" y1="78.66666666666666" x2="35" y2="78.66666666666666" style="visibility: inherit;" fill="rgb(0, 0, 0)" stroke="rgb(204, 204, 204)" stroke-width="1px"></line><line x1="40" y1="58.999999999999964" x2="35" y2="58.999999999999964" style="visibility: inherit;" fill="rgb(0, 0, 0)" stroke="rgb(204, 204, 204)" stroke-width="1px"></line><line x1="40" y1="39.33333333333329" x2="35" y2="39.33333333333329" style="visibility: inherit;" fill="rgb(0, 0, 0)" stroke="rgb(204, 204, 204)" stroke-width="1px"></line><line x1="40" y1="19.666666666666696" x2="35" y2="19.666666666666696" style="visibility: inherit;" fill="rgb(0, 0, 0)" stroke="rgb(204, 204, 204)" stroke-width="1px"></line><line x1="40" y1="0" x2="35" y2="0" style="visibility: inherit;" fill="rgb(0, 0, 0)" stroke="rgb(204, 204, 204)" stroke-width="1px"></line></g><g transform="translate(30, 0)"><text x="0" y="177" dx="0em" dy="0.3em" style="text-anchor: end; visibility: hidden; font-family: Roboto, sans-serif; font-size: 12px; font-weight: 200;" fill="rgb(255, 255, 255)" stroke="none" stroke-width="1px">1.5</text><text x="0" y="157.33333333333331" dx="0em" dy="0.3em" style="text-anchor: end; visibility: inherit; font-family: Roboto, sans-serif; font-size: 12px; font-weight: 200;" fill="rgb(255, 255, 255)" stroke="none" stroke-width="1px">1.6</text><text x="0" y="137.66666666666666" dx="0em" dy="0.3em" style="text-anchor: end; visibility: hidden; font-family: Roboto, sans-serif; font-size: 12px; font-weight: 200;" fill="rgb(255, 255, 255)" stroke="none" stroke-width="1px">1.7</text><text x="0" y="117.99999999999997" dx="0em" dy="0.3em" style="text-anchor: end; visibility: inherit; font-family: Roboto, sans-serif; font-size: 12px; font-weight: 200;" fill="rgb(255, 255, 255)" stroke="none" stroke-width="1px">1.8</text><text x="0" y="98.33333333333334" dx="0em" dy="0.3em" style="text-anchor: end; visibility: hidden; font-family: Roboto, sans-serif; font-size: 12px; font-weight: 200;" fill="rgb(255, 255, 255)" stroke="none" stroke-width="1px">1.9</text><text x="0" y="78.66666666666666" dx="0em" dy="0.3em" style="text-anchor: end; visibility: inherit; font-family: Roboto, sans-serif; font-size: 12px; font-weight: 200;" fill="rgb(255, 255, 255)" stroke="none" stroke-width="1px">2</text><text x="0" y="58.999999999999964" dx="0em" dy="0.3em" style="text-anchor: end; visibility: hidden; font-family: Roboto, sans-serif; font-size: 12px; font-weight: 200;" fill="rgb(255, 255, 255)" stroke="none" stroke-width="1px">2.1</text><text x="0" y="39.33333333333329" dx="0em" dy="0.3em" style="text-anchor: end; visibility: inherit; font-family: Roboto, sans-serif; font-size: 12px; font-weight: 200;" fill="rgb(255, 255, 255)" stroke="none" stroke-width="1px">2.2</text><text x="0" y="19.666666666666696" dx="0em" dy="0.3em" style="text-anchor: end; visibility: hidden; font-family: Roboto, sans-serif; font-size: 12px; font-weight: 200;" fill="rgb(255, 255, 255)" stroke="none" stroke-width="1px">2.3</text><text x="0" y="0" dx="0em" dy="0.3em" style="text-anchor: end; visibility: hidden; font-family: Roboto, sans-serif; font-size: 12px; font-weight: 200;" fill="rgb(255, 255, 255)" stroke="none" stroke-width="1px">2.4</text></g><line x1="40" y1="0" x2="40" y2="177" fill="rgb(0, 0, 0)" stroke="rgb(204, 204, 204)" stroke-width="1px"></line></g></g><g transform="translate(40, 0)" clip-path="url(#clip_0)"><clipPath id="clip_0"><rect width="290" height="177"></rect></clipPath><g><g><g><line x1="0" y1="0" x2="0" y2="177" fill="rgb(0, 0, 0)" stroke="rgb(189, 189, 189)" stroke-width="1px" opacity="0.25"></line><line x1="24.166666666666664" y1="0" x2="24.166666666666664" y2="177" fill="rgb(0, 0, 0)" stroke="rgb(189, 189, 189)" stroke-width="1px" opacity="0.25"></line><line x1="48.33333333333333" y1="0" x2="48.33333333333333" y2="177" fill="rgb(0, 0, 0)" stroke="rgb(189, 189, 189)" stroke-width="1px" opacity="0.25"></line><line x1="72.5" y1="0" x2="72.5" y2="177" fill="rgb(0, 0, 0)" stroke="rgb(189, 189, 189)" stroke-width="1px" opacity="0.25"></line><line x1="96.66666666666666" y1="0" x2="96.66666666666666" y2="177" fill="rgb(0, 0, 0)" stroke="rgb(189, 189, 189)" stroke-width="1px" opacity="0.25"></line><line x1="120.83333333333334" y1="0" x2="120.83333333333334" y2="177" fill="rgb(0, 0, 0)" stroke="rgb(189, 189, 189)" stroke-width="1px" opacity="0.25"></line><line x1="145" y1="0" x2="145" y2="177" fill="rgb(0, 0, 0)" stroke="rgb(189, 189, 189)" stroke-width="1px" opacity="0.25"></line><line x1="169.16666666666669" y1="0" x2="169.16666666666669" y2="177" fill="rgb(0, 0, 0)" stroke="rgb(189, 189, 189)" stroke-width="1px" opacity="0.25"></line><line x1="193.33333333333331" y1="0" x2="193.33333333333331" y2="177" fill="rgb(0, 0, 0)" stroke="rgb(189, 189, 189)" stroke-width="1px" opacity="0.25"></line><line x1="217.5" y1="0" x2="217.5" y2="177" fill="rgb(0, 0, 0)" stroke="rgb(189, 189, 189)" stroke-width="1px" opacity="0.25"></line><line x1="241.66666666666669" y1="0" x2="241.66666666666669" y2="177" fill="rgb(0, 0, 0)" stroke="rgb(189, 189, 189)" stroke-width="1px" opacity="0.25"></line><line x1="265.8333333333333" y1="0" x2="265.8333333333333" y2="177" fill="rgb(0, 0, 0)" stroke="rgb(189, 189, 189)" stroke-width="1px" opacity="0.25"></line><line x1="290" y1="0" x2="290" y2="177" fill="rgb(0, 0, 0)" stroke="rgb(189, 189, 189)" stroke-width="1px" opacity="0.25"></line></g><g><line x1="0" y1="177" x2="290" y2="177" fill="rgb(0, 0, 0)" stroke="rgb(189, 189, 189)" stroke-width="1px" opacity="0.25"></line><line x1="0" y1="157.33333333333331" x2="290" y2="157.33333333333331" fill="rgb(0, 0, 0)" stroke="rgb(189, 189, 189)" stroke-width="1px" opacity="0.25"></line><line x1="0" y1="137.66666666666666" x2="290" y2="137.66666666666666" fill="rgb(0, 0, 0)" stroke="rgb(189, 189, 189)" stroke-width="1px" opacity="0.25"></line><line x1="0" y1="117.99999999999997" x2="290" y2="117.99999999999997" fill="rgb(0, 0, 0)" stroke="rgb(189, 189, 189)" stroke-width="1px" opacity="0.25"></line><line x1="0" y1="98.33333333333334" x2="290" y2="98.33333333333334" fill="rgb(0, 0, 0)" stroke="rgb(189, 189, 189)" stroke-width="1px" opacity="0.25"></line><line x1="0" y1="78.66666666666666" x2="290" y2="78.66666666666666" fill="rgb(0, 0, 0)" stroke="rgb(189, 189, 189)" stroke-width="1px" opacity="0.25"></line><line x1="0" y1="58.999999999999964" x2="290" y2="58.999999999999964" fill="rgb(0, 0, 0)" stroke="rgb(189, 189, 189)" stroke-width="1px" opacity="0.25"></line><line x1="0" y1="39.33333333333329" x2="290" y2="39.33333333333329" fill="rgb(0, 0, 0)" stroke="rgb(189, 189, 189)" stroke-width="1px" opacity="0.25"></line><line x1="0" y1="19.666666666666696" x2="290" y2="19.666666666666696" fill="rgb(0, 0, 0)" stroke="rgb(189, 189, 189)" stroke-width="1px" opacity="0.25"></line><line x1="0" y1="0" x2="290" y2="0" fill="rgb(0, 0, 0)" stroke="rgb(189, 189, 189)" stroke-width="1px" opacity="0.25"></line></g></g></g><g><g><line x1="0" y1="472.00000000000006" x2="290" y2="472.00000000000006" fill="rgb(0, 0, 0)" stroke="rgb(153, 153, 153)" stroke-width="1.5px"></line></g></g><g><g><line x1="24.166666666666664" y1="0" x2="24.166666666666664" y2="177" fill="rgb(0, 0, 0)" stroke="rgb(153, 153, 153)" stroke-width="1.5px"></line></g></g><g><g><g><g><g><path stroke="rgb(0, 119, 187)" stroke-width="2px" d="M24.68866666666667,20.595546881357805L25.00283333333333,24.583601772785173L25.350833333333334,27.290456953502858L25.423333333333336,27.645310420031635L26.114500000000003,44.50891165520455L26.419,50.36390478238385L26.6365,53.78433043826965L26.771833333333333,60.24017910198127L26.858833333333333,66.95722002280607L27.052166666666665,61.82526765103144L27.35183333333333,61.354896409206056L27.86416666666667,67.90015341971359L28.0575,67.53617772472505L28.357166666666668,70.29930910394994L28.453833333333336,73.5963745185012L29.077333333333335,77.44681153670479L29.130499999999998,82.44511984812463L29.183666666666667,77.51356762233063L29.608999999999998,77.56284360100085L29.642833333333332,80.41509621007653L29.7975,75.44097137757147L29.8555,76.9900877146179L29.894166666666667,76.1205967544678L30.222833333333334,79.45289949496932L30.232499999999998,78.52177602326114L30.314666666666668,78.3163658667953L30.822166666666664,76.04875312754211L31.020333333333333,79.8548876443315L31.2185,76.2354287480011L31.3925,81.18927829356268L31.469833333333334,79.73441295930543L31.484333333333336,83.03929359855421L31.653499999999998,82.15239059152275L31.735666666666663,76.34871676360305L32.24316666666667,77.2844680477792L33.54816666666667,77.80917659722242L33.64483333333334,83.08757616362742L33.64966666666667,84.62092853925822L35.57333333333333,82.9921202544374L35.9455,83.14143698338773L35.96966666666667,81.41453827634491L36.07116666666666,69.87651315699114L36.08566666666667,70.8595564489626L36.26933333333333,71.90805049706167L36.626999999999995,69.13068075927237L36.907333333333334,77.88803713347774L36.946000000000005,83.42663573142514L37.14416666666666,81.33655509298295L37.187666666666665,84.22467984131048L37.26016666666667,88.21649729436527L37.303666666666665,89.73358210261934L37.55016666666667,92.16154510381297L37.632333333333335,88.102236802983L37.917500000000004,85.34837875501483L38.541,81.03294763010172L39.07266666666667,79.5388468963385L39.174166666666665,79.31007625634349L39.179,81.64741768424666L39.37233333333334,82.58345529626787L39.63333333333333,81.04912137900375L39.72033333333333,81.58609332987419L39.836333333333336,77.45191902130094L39.952333333333335,81.75467541739891L39.966833333333334,81.12025113260076L40.39216666666667,88.65099719775914L40.62416666666667,95.41542732485054L41.006,91.06273562769837L41.088166666666666,84.54669339891723L41.21383333333333,83.0567179805226L41.40716666666667,88.24508775191623L41.5715,84.97946308205792L41.648833333333336,88.52419893433812L41.832499999999996,92.55051331812237L41.900166666666664,88.97469587183453L41.91466666666667,85.15478091472258L42.112833333333334,87.90070663909437L42.451166666666666,93.83352163843509L42.77016666666667,93.20171029217362L43.094,94.35633412309878L43.56283333333333,92.0594009517137L43.616,100.93368690561276L44.031666666666666,103.66945184877129L44.089666666666666,91.67268621292082L44.379666666666665,88.872101120351L44.432833333333335,89.83929921718332L44.602,89.15311839698889L45.04183333333333,92.61623140882935L45.09016666666667,93.51377211835867L46.11,93.81742960707474L46.23083333333334,96.69174592393313L46.641666666666666,99.55978931207062L46.83983333333333,96.73467176686884L47.52616666666666,101.97609543123536L47.545500000000004,96.66326415927428L47.767833333333336,94.77440909777812L48.720000000000006,94.4101223403299L48.7635,85.54699344560012L48.77316666666666,88.09353397960172L48.976166666666664,94.99408285622619L48.9955,99.05747673196487L49.08733333333333,97.42635545700524L49.242000000000004,94.1162309581224L49.304833333333335,96.23960087701782L49.425666666666665,102.6415431380576L49.6045,100.01693284592861L49.764,95.61262260326842L50.08783333333333,98.331107567444L50.286,89.12972653946952L50.5325,87.06047129457201L51.562000000000005,96.96993517771368L52.00183333333334,92.87829432424903L52.3595,82.93430392863554L52.523833333333336,87.29844446731926L52.58666666666667,84.58075573297332L52.95883333333334,79.40037420343553L53.07966666666666,85.3019767142407L53.157,90.49024211985305L53.42766666666667,87.46250706288676L53.708,97.99038596177178L53.8385,94.99571066234954L53.85783333333333,93.11597761989307L54.25899999999999,93.9529832928221L54.346000000000004,96.24203222168525L54.52,97.58012603823171L54.77616666666666,96.69692936998901L54.785833333333336,102.39685101188599L54.90183333333333,93.46695747501083L54.906666666666666,99.4918106468107L54.93083333333334,93.84813566634571L54.955,99.10313964463977L55.834666666666664,105.79697327958174L55.92166666666667,99.13096812454835L55.998999999999995,103.02740483535115L56.02316666666667,98.42712217799496L56.06666666666666,100.06063824235403L56.69983333333334,95.02595988912785L56.7965,91.75085514388526L57.04783333333334,97.33701986631972L57.241166666666665,100.30957434909276L57.279833333333336,102.42201452853323L57.61333333333333,103.1423497998836L57.961333333333336,99.9521141213649L57.985499999999995,98.90403106386307L57.99516666666667,101.02905584916378L58.26583333333333,102.844869543383L58.79750000000001,98.411069509945L59.00533333333333,98.51165994657778L59.227666666666664,106.43432207497182L59.4935,101.52076058939429L59.711,102.53175160103243L60.112166666666674,104.23417935061377L60.247499999999995,104.52781576288493L60.26683333333334,109.84748506370835L60.2765,106.21909589662344L60.4505,111.29004012998456L60.629333333333335,105.9437917438538L60.871,102.18293084109176L60.92416666666667,104.10516084077565L61.1175,97.60550341313643L61.51866666666667,104.01115812444031L61.533166666666666,100.98945930947866L61.658833333333334,105.81587372233471L61.8425,106.62052042887608L61.973,98.85507608814638L62.13733333333333,100.94252518830857L62.330666666666666,99.61476870388682L62.7705,104.29826519495778L63.42783333333333,104.21196470423462L64.24466666666666,108.3074403073227L64.757,108.9983049869042L65.48683333333334,103.6758436743121L65.51583333333333,103.92159907720688L65.82516666666668,110.89673592668096L66.02333333333333,105.96385122550319L66.1925,92.20425500003171L66.3375,96.51194187915928L66.47283333333334,98.15946821918051L66.58883333333333,97.46011177231844L66.5985,107.04068100966997L66.816,110.11274920613363L66.86433333333333,113.12469813055277L67.04316666666666,104.04325060542311L67.077,100.99687063989572L67.95183333333334,93.58404850342392L68.25633333333333,103.6355085176936L68.40616666666666,106.57124247964488L68.8895,105.14851737906297L69.078,104.72328823937829L69.136,105.41131335576686L69.25200000000001,98.95282868194768L69.40666666666667,110.4952119885774L70.27183333333333,110.9869852800503L70.31533333333333,112.72220698630817L70.91466666666666,106.31869110844137L71.11283333333333,112.2787618719435L71.311,112.50965020355957L71.31583333333333,109.66523712454666L71.40283333333333,109.06303123779155L71.717,107.61280475545162L71.862,105.81037513308664L71.99249999999999,98.62308033243579L72.10366666666667,110.36052244466003L72.2535,109.05812652247023L72.25833333333334,113.1423122843317L72.3115,107.50276668629321L72.37433333333333,104.25828086392846L72.40333333333334,106.66470667753676L72.471,103.10034006258284L72.80933333333333,105.12762843024994L72.93983333333334,104.7911788609759L73.08966666666666,103.90831222457503L73.17183333333334,106.4504210848976L73.428,114.42799553271345L73.51016666666666,111.89960499403604L73.544,117.38108023681876L74.15783333333333,112.27684604731385L74.17233333333333,111.9171555575163L74.17716666666666,113.02511115092621L74.414,105.92587471337266L74.65566666666668,102.37597891687042L74.71849999999999,105.08727310299089L74.92633333333335,106.85459466496631L75.0085,111.47203306189888L75.21633333333334,111.12127439875434L75.61266666666666,109.48892941891572L75.62233333333333,104.45354063601941L75.922,103.79117040211946L75.97033333333334,108.34564731344572L76.00416666666666,106.20346363678568L77.44933333333334,108.99659505066273L77.4735,106.06813477621671L77.51216666666666,99.4171893704704L77.59916666666666,100.96112622273591L77.79249999999999,105.56573244801734L77.9085,111.24261860572243L77.9375,111.39918406321374L78.36283333333333,105.34387648610534L78.39183333333332,97.6574390839036L78.938,103.37003460589028L79.24249999999999,97.57525022266094L79.31500000000001,109.37366753878865L79.47933333333334,112.85292846796516L81.13716666666666,113.88124404850163L81.29666666666667,111.63273485403792L81.432,112.51338823577684L81.52866666666667,110.808898559854L82.03616666666666,115.4102293044203L82.30199999999999,113.91598344980913L82.53883333333334,112.19544638676985L83.01733333333334,112.03302739550794L83.03666666666666,111.49817677233692L83.30733333333333,107.38984596666143L83.63116666666666,110.76066021086643L83.69883333333334,108.73704178310558L83.88250000000001,110.729017761412L84.09516666666666,111.74483421667182L84.10483333333333,111.13206885987773L84.28366666666668,114.333252374734L84.47216666666667,113.8433715171052L84.4915,112.18175688980617L84.84916666666666,104.43866321006571L85.07633333333334,102.51973920996475L85.5935,104.3319094693789L86.52633333333334,113.03839071489146L86.54566666666666,108.94403103131121L86.73416666666667,104.54434496842663L86.86949999999999,113.77532444804612L86.88883333333332,118.5893272384586L87.9135,112.19751682825377L88.47416666666666,104.82805125880735L88.69166666666668,108.62678973457314L88.88016666666667,112.33164558757001L89.02516666666666,119.82290254800712L89.204,108.7461804237119L89.52783333333332,110.23016299920188L89.66316666666665,106.86623971134568L89.70183333333334,106.64339634857659L90.016,96.3983428145374L90.10783333333333,101.795060503379L90.132,105.83587746693422L90.88116666666667,106.09018589381616L91.10833333333333,114.50434792036359L91.698,112.01181123253434L91.7415,116.11600651898021L91.86716666666666,117.41725227768046L92.0605,111.64774888476623L92.69366666666666,117.6448778413985L92.74683333333334,115.51862881004337L92.83383333333333,112.03855307948304L93.08516666666667,113.69373989136048L93.119,109.55712175387757L93.54916666666666,107.8755083720999L93.583,111.117552191483L93.79566666666668,115.34682545093717L93.86333333333333,114.3062907915991L94.424,109.686596905888L94.627,95.77791464072514L94.84933333333333,104.82889465337229L94.95566666666667,107.1185582072252L95.43900000000001,105.90297766471193L95.79666666666667,112.10667250123197L95.95133333333332,112.72581373989524L96.01416666666667,111.31076242530311L96.0335,110.82637791238608L96.309,122.23987610579957L96.38149999999999,120.71145438815014L96.76333333333334,117.84066854912952L96.98566666666667,116.54944443900735L96.99050000000001,120.42275900959582L97.00983333333333,120.7634092369851L97.20316666666666,123.17387933328808L97.27083333333333,114.52658480084972L97.3385,119.75727864311361L97.41099999999999,119.66438728296494L97.56566666666666,109.85642770364123L97.63333333333334,110.96340950787607L98.28583333333333,112.69009366309965L98.42116666666666,117.69944880014454L98.46466666666667,117.61669998331341L98.69666666666666,121.43437933701357L98.87549999999999,122.06595142550121L99.03983333333333,119.32039074818401L99.61983333333335,124.77473843526904L99.75516666666665,130.39268729944266L100.11283333333334,120.69508325572355L100.34483333333333,123.15819441983427L100.50433333333334,117.05573424324984L100.63483333333332,101.70897860899925L100.89099999999999,107.89843400861038L101.12783333333334,116.10450360305241L101.6595,111.27208507732826L101.87216666666667,110.27514524068202L102.07033333333332,115.00653367125452L102.399,107.3341686857748L102.40383333333334,111.2544642368758L102.66966666666666,110.12469350972599L103.01766666666667,107.9737291396389L103.17716666666666,111.05236950282631L103.39949999999999,110.62444379387922L103.49133333333333,122.78775583778997L103.56866666666667,115.76947557374939L105.03800000000001,115.17526131140251L105.05733333333333,116.94787726362783L105.53583333333333,116.71545398370569L105.6905,124.66194959562705L105.75816666666667,126.41281259108595L105.77266666666667,130.36740918983426L105.88866666666667,135.38901043750485L106.08200000000001,126.95104281594938L106.7055,123.43004716529799L106.91816666666666,121.50835359748815L106.94716666666667,121.56134096378052L106.952,118.05787254727262L107.60933333333332,117.89894615028126L107.65766666666667,122.0741923793981L108.2425,125.95151819456592L108.42133333333334,123.73577749134486L109.05933333333333,127.84234215856425L109.39283333333333,120.40716237648826L109.6635,114.20498201146421L109.70700000000001,117.46195544935088L109.87133333333334,118.12930876892896L110.05016666666667,111.82893750795972L110.59633333333333,115.9090532803292L110.85733333333333,111.10604095918467L111.19566666666667,122.97372716543593L111.75633333333334,124.19320980237433L111.795,118.3075503956865L111.81433333333334,112.68445578723691L111.83366666666666,98.53040823644126L112.172,111.81309408330354L112.50550000000001,115.0718815786646L112.77616666666667,111.3817012586001L113.129,107.4455574995957L113.245,103.3915539173294L113.4335,106.09041995135995L113.49633333333333,112.42308621204727L113.53983333333333,113.38073507505753L113.6945,113.07647472753982L114.14883333333333,121.91048320612224L114.23583333333335,123.63702844270617L114.84,128.5120195469571L114.869,134.31469451117388L114.8835,126.47799193100849L114.94149999999999,125.70451728842691L115.014,123.1217348595979L115.54083333333332,114.88757138374578L115.96133333333333,114.94566440337776L116.53166666666667,124.38809216670518L116.55099999999999,127.58837907703118L117.015,123.93964936648645L117.3485,124.41256192315522L117.54666666666667,116.00212531281852L117.827,105.32437406973051L117.96716666666667,108.71087279516063L118.03483333333334,108.48619263130986L118.41183333333333,115.9490040665382L118.42633333333333,114.2334622060565L118.64383333333333,117.91980004600532L118.987,113.77608186577866L119.16583333333332,123.55644139394226L120.06966666666666,122.26619045383771L120.16633333333333,121.57596179910722L120.33066666666666,125.91095692158669L120.408,121.12405014579053L120.46116666666667,124.9471845659289L120.75116666666666,130.41615298783816L120.7705,124.2383560700975L120.83333333333334,120.19008226973386L120.90583333333333,122.25343932181143L122.34133333333334,126.57193810226248L122.58783333333334,121.38608621646003L122.7425,120.4618244275791L122.786,127.56451092394242L122.87783333333334,123.97951338826846L122.96483333333333,123.1502685277019L123.221,116.30269611646854L123.63183333333333,108.36408201517735L123.64633333333333,109.65071824190262L123.82516666666666,119.51920101044921L123.9605,118.12860018212606L124.0475,126.42875830848422L124.05716666666667,123.70118519774717L124.5115,123.7851108060974L124.903,122.47751421213339L125.41533333333334,125.34266373205298L125.43466666666666,124.24552584899332L125.51683333333334,127.99102866577823L125.541,127.32581153667604L125.57,124.03789764537392L125.67150000000001,121.0103909208018L125.8455,115.51422672472226L125.92283333333333,112.67414596677915L126.295,119.68222138286289L126.79766666666666,117.69079012672496L126.962,112.23267212112975L127.17466666666667,113.01856578946253L127.5565,115.95406200226232L127.69666666666667,120.5857816163863L128.4845,124.39664305989936L128.53766666666667,122.06830829229948L128.56183333333334,123.15147227752405L128.673,121.7873855116459L128.93883333333332,116.67327391003525L128.9485,120.86653253373477L129.59616666666668,112.7009982403336L129.75566666666668,120.30415721751561L130.80933333333334,116.38580415259187L130.92533333333333,124.33766258722774L131.2105,123.38294772883L131.28783333333334,114.12458099869734L131.61166666666665,115.71744008430548L131.88233333333332,114.99920931400088L131.98866666666666,115.9312211768303L132.33183333333332,126.03871409673337L132.3415,130.0126549755266L132.52033333333333,127.42550209888205L133.89783333333332,131.66916746136576L134.15883333333335,131.37948322040057L134.27966666666669,112.39655869648186L134.95633333333333,130.25019931065236L135.68133333333333,121.9014664606285L135.7925,122.49613592521538L135.85049999999998,124.99010013041614L136.7785,119.85274665254978L136.93316666666666,130.8471962652522L137.3005,131.0454792365581L137.30533333333332,132.113725943475L137.75483333333332,127.14059926059386L138.185,127.35247968625951L138.19466666666665,131.97643999452552L138.45566666666667,131.46486408826806L138.47016666666667,129.4613436976101L140.50983333333332,122.01785712951582L141.99849999999998,127.18514512487745L142.43833333333333,125.41472744052706L142.45766666666668,119.6513307041234L142.5495,130.46627223966354L143.1005,127.31762783812185L143.57416666666666,127.49969656320431L143.64183333333335,118.78268613250266L143.83516666666668,127.80951719580817L144.1735,128.63457442779577L144.246,125.03383697743756L144.40066666666667,122.7130716821087L144.43449999999999,120.58371455950733L144.70516666666666,129.8398144214344L144.80183333333335,127.86574752940682L144.8115,127.833454210444L144.96133333333333,123.42357163362722L145.261,127.7731413805466L145.54616666666666,129.94644991342113L145.90866666666668,132.12059148023852L146.20833333333334,130.07990353824897L146.9285,128.8288203171225L147.1508333333333,130.53577224957934L147.262,132.09806955982046L148.14166666666668,133.73708537297722L148.40266666666668,131.7477987154957L148.451,128.16986545391697L148.46066666666667,132.44718745828365L148.66366666666667,126.99504806685864L148.93916666666667,132.973376763394L149.38866666666667,135.21040252796638L149.43699999999998,132.2978175080925L149.49499999999998,131.32249060454626L150.307,129.3459200333515L150.35049999999998,128.6803047818517L150.38916666666665,131.12268021281017L150.42783333333335,132.30886279687556L150.57766666666666,126.06055863983596L151.10933333333332,137.79270674558776L151.2398333333333,138.16188713176427L151.30266666666668,129.61422635076474L151.31233333333336,132.25318448319848L151.66033333333334,137.4322882368653L151.87300000000002,132.1757492149565L152.4965,128.67729490149182L152.67533333333333,131.20708437650296L152.6995,131.64420441720225L152.9605,134.3525998826822L153.18766666666667,136.23227249598503L153.47766666666666,128.54256450543406L153.77733333333333,124.64019569204012L153.78216666666665,131.06240113841952L154.25583333333336,123.2476156250683L154.52650000000003,122.56648672199532L154.73916666666665,118.16570914135147L154.81166666666667,125.88880597161709L154.95666666666668,126.81479549372666L155.17416666666668,122.70713876067285L155.266,127.56914590822865L155.34816666666666,128.91624432619736L156.16016666666667,128.47584964722193L156.44533333333334,128.0512243701406L156.80783333333332,122.7836507356199L156.82233333333332,118.45086311872997L156.86583333333334,127.99141516432884L157.18966666666668,132.57666284727483L157.267,135.09414487811384L157.69716666666665,128.99394191344058L157.818,131.43617799901648L158.49949999999998,134.6261903784097L158.65900000000002,126.56105847804275L158.69766666666666,127.561064916741L158.9925,126.65594166788925L159.53383333333335,126.47047126853548L159.72233333333332,119.09163045424664L159.99783333333332,123.84004125319984L160.486,123.19181635373671L160.57783333333333,118.48765040870808L161.25933333333336,120.69512943488142L161.6895,120.29280798472034L161.72816666666665,126.18625766935192L161.994,131.67356579444157L162.33233333333334,123.83322972222972L162.47733333333335,129.3104840089767L162.54016666666666,132.77465837617052L163.33283333333335,142.14381908626956L163.3425,144.62431603621403L163.63250000000002,146.02155579299307L163.76783333333333,145.55611384612664L164.20283333333333,139.27848120949076L164.2125,132.96817407064478L164.26083333333332,131.3569729708801L164.91333333333333,141.6154758522811L164.94716666666665,141.79698625345443L165.58999999999997,131.68493728124744L165.8365,136.36358532279917L166.04433333333333,132.43844398441027L166.29083333333335,129.5738071794238L166.42133333333334,126.46978374689375L166.7065,135.0192099672728L167.069,130.43365510277982L167.3348333333333,128.28818416579384L167.41216666666668,133.75889879852818L167.58133333333333,134.42170550658474L167.61033333333333,133.94375645061834L168.1275,132.53201705777946L168.16133333333332,140.58515964288097L168.2435,142.24226689143134L168.35466666666667,138.9381708928137L168.43683333333334,144.30934129326675L168.5625,138.96663530371072L168.99266666666665,134.1543230515807L169.04583333333332,135.91234019808502L169.16666666666669,131.3621441090854L169.43733333333336,127.29576534220094L169.49533333333335,132.2084032348107L169.55816666666666,125.82453360068664L170.13816666666668,127.34669286752457L170.346,126.0999628310087L170.39916666666667,128.97404280531498L170.40883333333335,124.46190851069345L170.42816666666667,119.62037252467982L170.6215,125.26257245788247L170.781,126.04099601735236L170.85833333333332,124.64517882404462L172.13916666666668,127.19765912853325L172.5065,124.77831875898028L172.56933333333333,131.11531291574786L172.80133333333333,139.51657821041672L173.48283333333333,135.58376052361126L173.61333333333334,139.07510280439098L173.73416666666665,141.8307146697969L173.77766666666665,139.73679833033069L173.80666666666667,136.41672353199155L173.84533333333334,128.0766037399632L174.03383333333332,126.79904350211592L174.57516666666666,134.2514716182373L175.0246666666667,133.36987539495362L175.18416666666667,135.32343633392654L175.52249999999998,134.00422033917428L175.82216666666665,134.4219952340018L175.9865,134.19008809219346L176.27166666666668,130.99220637017808L176.93866666666665,131.50509332538243L177.04500000000002,133.85460644714394L177.19483333333332,133.90972899050925L177.36883333333336,133.2636624255861L177.38816666666668,132.0565249013355L177.42683333333335,127.34350877726779L177.73133333333334,135.7326889379305L177.74583333333334,133.53602773806347L178.25333333333333,131.3884710561885L178.3645,138.40975340753715L178.4418333333333,141.70097604125692L178.5095,136.72522375621367L178.611,137.44162041527807L178.72216666666665,132.95059049079484L178.80916666666667,131.55571650634013L178.90583333333333,139.85265429319819L179.67433333333335,136.7963421156121L179.8435,138.03692503433106L180.06583333333333,144.38667502995733L181.28866666666667,150.23461112377885L181.3563333333333,141.12060421902643L181.58833333333334,135.74201124230248L181.81550000000001,140.39811332217388L182.44383333333334,136.1928617588174L182.75799999999998,142.12629908908357L182.76283333333333,143.01307965868085L182.82083333333333,129.24357551864804L182.82566666666665,119.76513194957582L183.19783333333334,118.16466611178245L183.50716666666668,128.79428455959672L183.60383333333334,135.8726990087683L183.72949999999997,132.82826634231338L184.56566666666666,123.48005052397528L184.759,131.90672042363806L185.02,142.27263758814692L185.571,138.12898086450315L185.6435,135.0938762124885L185.66766666666666,135.74734221079999L185.73049999999998,134.93702875482472L185.80300000000003,132.24709579293383L187.05966666666666,133.01021073427472L187.09833333333333,141.0048560827971L187.2965,135.9769469100237L187.55266666666668,135.4431420801878L187.68316666666666,139.77820414536L187.82333333333332,131.1669498258797L187.84750000000003,124.2657267078142L187.85716666666667,133.47605052537006L187.95383333333334,131.04948809313544L188.60633333333334,138.14279154082797L188.935,130.7353818603793L189.02200000000002,135.0935931794905L189.457,132.11622050959252L189.83883333333333,136.55039004221587L189.86299999999997,131.71036056519563L190.26416666666668,123.52663353984168L190.74749999999997,123.90252107722327L190.80066666666667,124.65762719914977L190.91666666666666,132.26880117300544L191.516,127.8157524190946L191.7335,130.21080339288332L192.08633333333333,131.5815892160075L192.42466666666667,133.8406830116195L192.74366666666666,135.16236046259098L192.89833333333334,134.67131201806365L193.00466666666665,138.79540732929723L193.0385,141.27883906819199L193.082,137.47259007090992L193.09166666666667,142.52009324746132L193.10133333333334,140.4969819814968L193.1786666666667,137.12903514887938L193.43483333333333,130.4531377755764L193.5605,133.84422455250203L193.70066666666668,130.13518199534604L193.88916666666665,132.36854278968605L194.01483333333334,130.56198937849302L194.17433333333332,132.95888005389432L194.387,136.3659768106162L195.16033333333334,143.2019892693531L195.4745,143.34232132599578L195.58083333333335,146.79539113620416L195.64366666666666,145.72142273612516L195.8805,136.74370581961293L196.00133333333332,133.7948528710402L196.13666666666666,138.07930321991824L196.18016666666665,134.98550243874618L196.40733333333333,140.6720939220998L196.74083333333334,130.9081308687934L197.03083333333333,130.89754121175656L197.44166666666666,131.89841912987583L197.5625,135.31490151963285L197.75099999999998,132.60858777889595L197.92016666666666,136.85106197036697L198.1715,141.81022274715144L198.21016666666668,143.1143237524575L198.85783333333333,143.4458248321223L199.0705,135.28308741076833L199.43783333333332,138.33498509620054L199.4813333333333,132.9760069840814L200.593,149.5643432931303L200.7235,138.3306968686699L201.05216666666666,137.49070032106152L201.1295,133.37411223848449L201.22133333333332,132.6574792881794L201.48716666666667,132.28507919430655L201.5258333333333,130.79321701121282L201.69983333333334,134.82098384772908L202.3475,143.53725440546972L202.45383333333334,148.92738645421528L202.4635,145.9234579790457L202.478,148.41429407529975L202.536,148.81234365582236L202.60366666666667,143.18147869435805L202.70033333333333,142.3136961829336L202.72449999999998,133.30223758051824L202.739,138.1396120808325L202.9855,142.3319246861419L203.319,139.1197661932159L203.38666666666668,137.62443120335627L203.5655,138.81390267444704L203.83616666666666,140.49737172424625L203.88449999999997,138.48840255598128L203.99083333333334,143.2577658517752L204.77866666666665,142.64496614278912L205.41183333333333,139.3669619028264L205.54233333333332,141.2866749762194L205.552,142.56762571327067L205.77916666666667,142.01332653676775L205.95800000000003,145.13828468192798L206.132,138.8774107289464L206.26250000000002,146.50985561959845L206.625,142.30316097231452L206.88600000000002,134.34776772672976L206.91016666666667,142.66218589314846L207.53366666666668,137.86745898665404L207.74633333333335,134.31211106424377L208.68883333333335,135.42837476995496L209.70383333333334,138.16668755372507L209.70866666666666,140.9491151247033L209.77633333333335,144.75033258241066L209.81016666666667,135.40469485228252L210.192,144.5490002177457L210.34183333333334,143.93956496371624L210.5593333333333,143.24435863129574L211.72899999999998,144.2927501275079L211.89333333333335,139.56281454209108L212.0915,131.86875771786939L212.1785,143.54169845167505L212.23166666666665,150.86899690379923L212.79233333333335,152.4212306770696L212.88899999999998,143.98524849611601L213.05816666666666,146.966067653883L213.6575,153.43415509580876L213.81699999999998,141.0922901168623L213.82183333333333,145.0601981362795L214.6,147.7286631513295L214.85133333333334,147.77592552395606L214.97699999999998,137.72640479023426L215.3346666666667,132.256621879827L215.5135,127.55900480895701L215.5763333333333,131.5943478736249L216.03066666666666,140.97840889253024L216.11283333333333,147.93635713234232L216.16116666666665,150.79874083503893L216.17566666666664,151.81513380868122L216.59133333333332,145.55187868990234L217.05533333333332,144.84266632348934L217.25833333333333,139.50843398700536L217.48066666666668,142.97753417251738L217.51933333333332,149.386472692638L217.64983333333336,148.6080096188482L217.7465,148.09144513745878L218.03650000000002,139.16541122360886L218.34583333333333,139.08335775711453L218.35066666666668,139.78933846103138L218.4425,138.80079938856952L218.64066666666668,138.97073794536703L218.6455,144.51103586236385L218.70833333333334,140.79431740212289L218.88233333333335,139.1068481749367L219.0805,136.31879322604766L219.10950000000003,133.39119220302365L219.2835,134.99219254171365L219.5155,136.93402920275238L220.02783333333335,133.35734169945704L220.11483333333334,135.29214340010634L220.371,135.78981720741203L220.487,133.4136485934393L221.33766666666665,134.5812929081998L221.37633333333332,136.92938970772911L221.60833333333332,145.67925327170983L221.77266666666668,152.37380235085345L221.95633333333333,148.45940965427627L222.05783333333335,141.46789216606024L222.401,141.3403199808292L222.546,136.82794718920144L222.6765,137.61967983034623L222.691,138.38741922887584L222.71033333333335,144.7710328450546L222.97616666666667,145.5502283941157L222.981,152.2528838219512L223.60933333333332,147.0375529072048L223.74466666666666,152.4306153421419L223.99116666666666,153.7836817879369L224.14583333333334,152.67259491158865L224.6243333333333,146.34610442721848L224.87083333333334,146.2910041594744L224.89983333333333,144.21379046743553L224.92883333333333,146.68648102942376L224.95299999999997,146.62227114278036L225.07383333333334,142.72190257850062L225.10766666666666,143.35216442511148L225.18016666666665,138.39408283093968L225.18983333333333,137.34084772661964L225.28650000000002,143.6643252507586L225.49916666666667,146.84517883474066L225.56683333333334,148.1318304809795L226.06949999999998,147.10720427867966L226.74616666666668,147.48040765148718L226.90566666666666,151.06664517098062L226.97816666666665,154.41990860247645L227.01683333333335,150.69838445947983L227.2295,150.36043212552715L227.418,144.49997926000665L227.42283333333333,150.07301580256566L227.6065,145.5498315851669L227.74183333333332,151.30211218759104L227.79016666666666,148.43190729159917L227.80466666666666,150.21500810507223L228.93566666666666,144.03325227413544L228.95016666666666,150.3450411688127L229.24983333333333,148.56719821279273L229.3996666666667,148.96554822277045L229.75733333333335,151.49300338358293L230.55,153.29087604799236L230.65633333333332,148.97237712771715L230.8835,145.31731038867048L231.2605,149.91661841220824L231.304,142.3903817884952L231.33783333333332,147.5333116701939L231.37166666666664,147.95779135137985L231.4586666666667,147.4613457181664L231.5215,144.21416104189228L231.768,149.47074636827907L231.87433333333334,149.1085299234251L232.67183333333332,142.15707873388095L232.90383333333335,143.88452376773333L232.93766666666667,141.77467410077875L233.12133333333333,144.7354970314715L233.13583333333332,139.76496561797146L233.43550000000002,142.71194676020752L233.82216666666667,141.09933631097687L234.38283333333334,144.1792367963517L234.44083333333333,141.82587694338108L234.6825,143.2428142977425L234.85649999999998,144.42389104878916L234.958,142.55710320939232L235.67333333333332,141.49692649803325L235.7603333333333,134.65082424776813L236.25816666666665,133.7260436171118L236.41283333333334,138.74971747123146L237.5631666666667,140.101285185752L237.70816666666667,147.03781248311458L238.07066666666665,139.60503885654765L238.08516666666665,136.28966290260252L238.20600000000002,138.1910885562791L238.525,140.73821969769162L238.59266666666667,147.028497035951L238.83433333333335,141.60703908740516L238.95033333333333,144.01257725162725L239.076,141.9117772952919L239.1195,149.93262536383895L239.163,149.55111917887467L239.1775,145.34221258779965L239.36116666666666,150.02823544554278L239.85416666666666,154.52438291517316L240.04266666666666,150.804431982482L240.27466666666666,141.24107755878242L240.3375,144.53575002546313L240.3665,135.6509071711413L240.37133333333333,142.54139091116457L240.4776666666667,145.37408975884676L240.51633333333334,151.9363596208415L240.77733333333333,150.1237062792493L241.42983333333333,145.76449145757238L241.5555,145.33873453467933L241.73916666666668,145.2363354130378L241.88899999999998,152.1717925248816L241.98566666666667,152.80980953643368L242.10649999999998,149.7369951629816L242.3675,146.7766828193771L242.643,150.8247078053856L242.86533333333335,150.16000310933813L243.53233333333333,152.44796614859237L243.73533333333333,149.22502304522433L244.23316666666665,144.39042309964643L244.43133333333333,148.7525703194436L244.4845,147.14299463129223L244.5811666666667,146.142148122566L244.6005,145.10687614999836L244.6585,149.9484018893398L244.97266666666667,151.92094857760412L245.33033333333333,147.5100858803678L245.55266666666668,141.8768147982809L246.32600000000002,153.49103123889284L246.38400000000001,157.7523316479479L246.50966666666665,154.24740678092374L247.82916666666668,147.98276353291985L248.63633333333334,154.5499359950164L248.8828333333333,154.63819663831026L248.94083333333336,145.25981773401358L249.45316666666665,147.22376106658615L249.9945,147.64669859297496L250.72916666666669,146.6516198231027L250.8065,153.404805798128L250.8983333333333,145.7473838043976L250.90316666666666,145.46922130462139L251.39616666666666,152.00762715584005L251.42033333333333,152.8715487399457L251.49283333333332,155.25827778649872L251.50733333333332,153.34913727406195L251.56050000000002,148.3902841692976L251.64266666666668,146.87103478227925L251.662,146.38707520235502L251.73933333333332,150.6945772747333L251.8118333333333,149.7294602739891L251.8795,148.0881200679986L252.07283333333334,148.61000914864826L252.10666666666665,145.4790808409041L252.19850000000002,148.4148224860183L252.76883333333333,154.5384624880404L252.8075,145.32294830174354L252.81716666666668,146.5797234882381L252.90416666666667,162.95838074541888L253.02016666666668,151.57420701577342L253.55666666666664,153.57593747850703L253.97716666666668,148.4214548719512L254.29133333333334,152.78049444670995L254.359,149.13752315550357L254.7553333333333,152.4834217594622L255.09366666666668,158.54734596212057L255.72683333333333,164.4696818069578L255.90566666666666,159.97916502213246L256.1666666666667,153.36742073569164L256.7563333333333,155.84319296443536L257.085,153.8124886609956L257.12850000000003,153.91099017408555L257.1623333333333,157.75071261056505L257.3653333333333,154.71860745983267L257.3895,149.48593863310583L257.8535,153.17888802168068L258.00333333333333,151.14661856816585L258.0323333333333,147.29670031265243L258.2208333333333,154.62966651556388L258.6365,152.4188867738098L259.1295,155.26303491971396L259.2406666666667,144.66626618294816L259.26,146.94639425668458L259.3953333333333,154.90295522924268L259.52583333333337,149.75456318169438L259.5355,140.666625950195L259.637,144.14845697092474L259.7481666666667,144.32629481955843L260.246,147.40110793116372L261.4543333333333,151.9840969626269L261.51233333333334,148.42734973336226L261.6041666666667,151.9890285851854L261.80233333333337,145.24015081657754L261.97633333333334,151.50377556125594L262.30016666666666,158.48365520898665L262.5225,155.89364860533175L262.64816666666667,150.2446793441683L262.74966666666666,150.31728989231846L263.33933333333334,148.1633757015959L263.552,147.36408364341034L264.3446666666667,147.5038181517444L264.3978333333333,147.74336780551607L264.6395,145.31879083381216L265.12766666666664,146.12605379461917L265.18083333333334,149.58583665553533L265.6496666666667,152.42082031963548L265.71733333333333,157.93822709956734L265.78499999999997,145.19683594846114L265.8333333333333,147.58866399532585" style="fill: none;" fill="none"></path></g></g></g></g><g opacity="0.2"><g><g><g><path stroke="rgb(0, 119, 187)" stroke-width="2px" d="M24.68866666666667,20.595546881357805L25.00283333333333,26.976434707641594L25.350833333333334,29.889037926991758L25.423333333333336,28.062618096669492L26.114500000000003,66.52602942784625L26.419,58.46346807479857L26.6365,58.675593852996805L26.771833333333333,69.65286842981972L26.858833333333333,76.86355066299437L27.052166666666665,54.20491647720335L27.35183333333333,60.65360577901203L27.86416666666667,77.68241993586221L28.0575,66.9914026260376L28.357166666666668,74.43859291076659L28.453833333333336,78.53809706370033L29.077333333333335,83.21975143750507L29.130499999999998,89.94046719868977L29.183666666666667,70.11749140421547L29.608999999999998,77.63675006230672L29.642833333333332,84.6932144165039L29.7975,67.98005692164101L29.8555,79.31371124585468L29.894166666666667,74.81637748082478L30.222833333333334,84.45131413141885L30.232499999999998,77.12509743372598L30.314666666666668,78.00825150807697L30.822166666666664,72.6473398208618L31.020333333333333,85.56408357620239L31.2185,70.80624373753865L31.3925,88.62004987398782L31.469833333333334,77.55211544036865L31.484333333333336,87.99661389986672L31.653499999999998,80.82203618685404L31.735666666666663,67.64320643742879L32.24316666666667,78.6880949338277L33.54816666666667,78.59623940785725L33.64483333333334,91.00517543156941L33.64966666666667,86.92095708847046L35.57333333333333,80.54890783627826L35.9455,83.36541207631429L35.96966666666667,78.82419021924335L36.07116666666666,52.569475491841615L36.08566666666667,72.33412138621011L36.26933333333333,73.48079156875609L36.626999999999995,64.96462615331012L36.907333333333334,91.02407169342041L36.946000000000005,91.73453362782794L37.14416666666666,78.20143413543701L37.187666666666665,88.55686696370441L37.26016666666667,94.20422347386679L37.303666666666665,92.00920931498207L37.55016666666667,95.80348960558572L37.632333333333335,82.01327435175575L37.917500000000004,81.21759168306984L38.541,74.55980094273885L39.07266666666667,77.29769579569498L39.174166666666665,78.9669202963511L39.179,85.15342982610066L39.37233333333334,83.98751171429952L39.63333333333333,78.74762050310768L39.72033333333333,82.3915512561798L39.836333333333336,71.25065755844116L39.952333333333335,88.20881001154581L39.966833333333334,80.16861470540364L40.39216666666667,99.94711629549661L40.62416666666667,105.56207251548767L41.006,84.53369808197021L41.088166666666666,74.77263005574544L41.21383333333333,80.82175485293068L41.40716666666667,96.02764240900675L41.5715,80.08102607727051L41.648833333333336,93.84130271275839L41.832499999999996,98.58998489379883L41.900166666666664,83.61096970240273L41.91466666666667,79.42490847905475L42.112833333333334,92.01959522565204L42.451166666666666,102.73274413744608L42.77016666666667,92.25399327278137L43.094,96.08826986948647L43.56283333333333,88.614001194636L43.616,114.24511583646138L44.031666666666666,107.77309926350911L44.089666666666666,73.6775377591451L44.379666666666665,84.67122348149616L44.432833333333335,91.29009636243185L44.602,88.12384716669716L45.04183333333333,97.81090092658997L45.09016666666667,94.86008318265277L46.11,94.27291584014893L46.23083333333334,101.00322039922078L46.641666666666666,103.86185439427693L46.83983333333333,92.49699544906615L47.52616666666666,109.83823092778523L47.545500000000004,88.69401725133258L47.767833333333336,91.94112650553384L48.720000000000006,93.86369220415749L48.7635,72.25230010350545L48.77316666666666,91.91334478060404L48.976166666666664,105.34490617116292L48.9955,105.15256754557291L49.08733333333333,94.97967354456581L49.242000000000004,89.15104420979816L49.304833333333335,99.4246557553609L49.425666666666665,112.24445652961731L49.6045,96.0800174077352L49.764,89.00615723927815L50.08783333333333,102.40883501370746L50.286,75.32765499750772L50.5325,83.95658842722573L51.562000000000005,111.83413100242613L52.00183333333334,86.74083304405212L52.3595,68.01831833521524L52.523833333333336,93.84465527534483L52.58666666666667,80.50422263145447L52.95883333333334,71.62980190912882L53.07966666666666,94.1543804804484L53.157,98.27264022827148L53.42766666666667,82.92090447743733L53.708,113.78220431009927L53.8385,90.50369771321616L53.85783333333333,90.29637805620828L54.25899999999999,95.20849180221558L54.346000000000004,99.67560561498006L54.52,99.58726676305136L54.77616666666666,95.3721343676249L54.785833333333336,110.94673347473145L54.90183333333333,80.07211716969807L54.906666666666666,108.5290904045105L54.93083333333334,85.3826231956482L54.955,106.98564561208089L55.834666666666664,115.83772373199463L55.92166666666667,89.13196039199828L55.998999999999995,108.87205990155537L56.02316666666667,91.52669819196063L56.06666666666666,102.5109123388926L56.69983333333334,87.47394235928851L56.7965,86.8381980260213L57.04783333333334,105.71626694997151L57.241166666666665,104.76840607325234L57.279833333333336,105.59067479769386L57.61333333333333,104.22285270690918L57.961333333333336,95.16676060358682L57.985499999999995,97.33190647761025L57.99516666666667,104.21659302711485L58.26583333333333,105.5685900847117L58.79750000000001,91.760369459788L59.00533333333333,98.66254560152689L59.227666666666664,118.31831526756287L59.4935,94.15041836102804L59.711,104.04823811848959L60.112166666666674,106.78782097498575L60.247499999999995,104.96827038129169L60.26683333333334,117.82698901494345L60.2765,100.7765121459961L60.4505,118.89645648002625L60.629333333333335,97.92441916465759L60.871,96.54163948694864L60.92416666666667,106.9885058403015L61.1175,87.85601727167764L61.51866666666667,113.61964019139609L61.533166666666666,96.45691108703613L61.658833333333334,113.05549534161885L61.8425,107.82749048868813L61.973,87.20690957705179L62.13733333333333,104.07369883855183L62.330666666666666,97.62313397725421L62.7705,111.32350993156432L63.42783333333333,104.08251396814981L64.24466666666666,114.45065371195474L64.757,110.03460200627644L65.48683333333334,95.69215170542398L65.51583333333333,104.29023218154906L65.82516666666668,121.35944120089212L66.02333333333333,98.56452417373656L66.1925,71.56486066182454L66.3375,102.97347219785053L66.47283333333334,100.63075772921243L66.58883333333333,96.41107710202536L66.5985,121.41153486569722L66.816,114.72085150082907L66.86433333333333,117.6426215171814L67.04316666666666,90.42107931772867L67.077,96.4273006916046L67.95183333333334,82.4648152987162L68.25633333333333,118.7126985390981L68.40616666666666,110.97484342257181L68.8895,103.0144297281901L69.078,104.08544452985126L69.136,106.44335103034973L69.25200000000001,89.26510167121886L69.40666666666667,127.80878694852194L70.27183333333333,111.72464521725973L70.31533333333333,115.32503954569498L70.91466666666666,96.71341729164122L71.11283333333333,121.21886801719666L71.311,112.85598270098367L71.31583333333333,105.39861750602721L71.40283333333333,108.15972240765889L71.717,105.43746503194174L71.862,103.10673069953917L71.99249999999999,87.84213813145954L72.10366666666667,127.96668561299641L72.2535,107.10453263918558L72.25833333333334,119.26859092712402L72.3115,99.04344828923543L72.37433333333333,99.39155213038126L72.40333333333334,110.27434539794922L72.471,97.75379014015198L72.80933333333333,108.16856098175049L72.93983333333334,104.28650450706482L73.08966666666666,102.58401226997375L73.17183333333334,110.26358437538147L73.428,126.39435720443726L73.51016666666666,108.10701918601988L73.544,125.60329310099283L74.15783333333333,104.62049476305641L74.17233333333333,111.37761982282002L74.17716666666666,114.68704454104105L74.414,95.27702005704242L74.65566666666668,97.0511352221171L74.71849999999999,109.15421438217162L74.92633333333335,109.50557700792946L75.0085,118.39819065729775L75.21633333333334,110.59513640403746L75.61266666666666,107.0404119491577L75.62233333333333,96.90045746167499L75.922,102.79761505126952L75.97033333333334,115.17736268043518L76.00416666666666,102.99018812179565L77.44933333333334,113.18629217147827L77.4735,101.67544436454773L77.51216666666666,89.44077126185098L77.59916666666666,103.27703150113425L77.79249999999999,112.47264178593954L77.9085,119.75794784228006L77.9375,111.63403224945068L78.36283333333333,96.26091512044269L78.39183333333332,86.12778298060097L78.938,111.93892788887024L79.24249999999999,88.88307364781696L79.31500000000001,127.07129351298015L79.47933333333334,118.07181986172994L81.13716666666666,115.42371741930641L81.29666666666667,108.25997106234232L81.432,113.83436830838521L81.52866666666667,108.25216404596964L82.03616666666666,122.31222542126974L82.30199999999999,111.67461466789244L82.53883333333334,109.6146407922109L83.01733333333334,111.7893989086151L83.03666666666666,110.69590083758035L83.30733333333333,101.22734975814818L83.63116666666666,115.81688157717386L83.69883333333334,105.70161414146422L83.88250000000001,113.71698172887166L84.09516666666666,113.26855889956154L84.10483333333333,110.21292082468668L84.28366666666668,119.13502764701843L84.47216666666667,113.10855023066202L84.4915,109.68933494885763L84.84916666666666,92.82402269045511L85.07633333333334,99.64135320981342L85.5935,107.05016485850014L86.52633333333334,126.0981125831604L86.54566666666666,102.80249150594076L86.73416666666667,97.94481587409972L86.86949999999999,127.62179366747539L86.88883333333332,125.81033142407735L87.9135,102.60980121294656L88.47416666666666,93.77385290463764L88.69166666666668,114.32489744822183L88.88016666666667,117.88892936706543L89.02516666666666,131.05978798866272L89.204,92.13109723726907L89.52783333333332,112.45613686243692L89.66316666666665,101.82035477956134L89.70183333333334,106.30913130442299L90.016,81.03076251347859L90.10783333333333,109.89013703664143L90.132,111.89710291226704L90.88116666666667,106.47164853413899L91.10833333333333,127.12559096018471L91.698,108.2730062007904L91.7415,122.2722994486491L91.86716666666666,119.36912091573079L92.0605,102.9934937953949L92.69366666666666,126.64057127634683L92.74683333333334,112.32925526301065L92.83383333333333,106.81843948364256L93.08516666666667,116.17652010917662L93.119,103.3521945476532L93.54916666666666,105.35308829943337L93.583,115.98061792055765L93.79566666666668,121.69073534011841L93.86333333333333,112.74548880259194L94.424,102.75705607732137L94.627,74.91489124298096L94.84933333333333,118.40536467234291L94.95566666666667,110.55305353800455L95.43900000000001,104.07960685094197L95.79666666666667,121.41221475601196L95.95133333333332,113.65452559789021L96.01416666666667,109.1881854534149L96.0335,110.09980114301045L96.309,139.3601233959198L96.38149999999999,118.41882181167601L96.76333333333334,113.53448979059854L96.98566666666667,114.61260827382407L96.99050000000001,126.23273086547852L97.00983333333333,121.27438457806905L97.20316666666666,126.78958447774251L97.27083333333333,101.55564300219217L97.3385,127.6033194065094L97.41099999999999,119.5250502427419L97.56566666666666,95.14448833465576L97.63333333333334,112.6238822142283L98.28583333333333,115.28011989593506L98.42116666666666,125.21348150571188L98.46466666666667,117.49257675806679L98.69666666666666,127.16089836756387L98.87549999999999,123.01330955823262L99.03983333333333,115.20204973220825L99.61983333333335,132.9562599658966L99.75516666666665,138.81961059570312L100.11283333333334,106.14867719014485L100.34483333333333,126.85286116600037L100.50433333333334,107.9020439783732L100.63483333333332,78.68884515762329L100.89099999999999,117.18261710802712L101.12783333333334,128.41360799471536L101.6595,104.02345728874207L101.87216666666667,108.77973548571266L102.07033333333332,122.10361631711324L102.399,95.82562120755512L102.40383333333334,117.13490756352743L102.66966666666666,108.43003741900125L103.01766666666667,104.74728258450827L103.17716666666666,115.67033004760741L103.39949999999999,109.98255523045857L103.49133333333333,141.032723903656L103.56866666666667,105.24205517768858L105.03800000000001,114.28393991788228L105.05733333333333,119.60680119196572L105.53583333333333,116.36681906382243L105.6905,136.5816930135091L105.75816666666667,129.0391070842743L105.77266666666667,136.29930408795676L105.88866666666667,142.9214123090108L106.08200000000001,114.29409138361612L106.7055,118.14855368932089L106.91816666666666,118.6258132457733L106.94716666666667,121.6408220132192L106.952,112.80266992251076L107.60933333333332,117.66055655479431L107.65766666666667,128.3370617230733L108.2425,131.7675069173177L108.42133333333334,120.41216643651327L109.05933333333333,134.0021891593933L109.39283333333333,109.25439270337422L109.6635,104.90171146392821L109.70700000000001,122.34741560618083L109.87133333333334,119.13033874829611L110.05016666666667,102.37838061650595L110.59633333333333,122.02922693888347L110.85733333333333,103.90152247746785L111.19566666666667,140.77525647481283L111.75633333333334,126.02243375778197L111.795,109.4790612856547L111.81433333333334,104.24981387456256L111.83366666666666,77.29933691024779L112.172,131.737122853597L112.50550000000001,119.96006282170613L112.77616666666667,105.84643077850342L113.129,101.54134186108908L113.245,97.31054854393004L113.4335,110.1387190024058L113.49633333333333,121.92208560307822L113.53983333333333,114.81720836957295L113.6945,112.62008420626321L114.14883333333333,135.16149592399597L114.23583333333335,126.22684629758199L114.84,135.82450620333353L114.869,143.0187069574992L114.8835,114.72293806076048L114.94149999999999,124.54430532455444L115.014,119.24756121635437L115.54083333333332,102.53632616996765L115.96133333333333,115.03280393282571L116.53166666666667,138.55173381169638L116.55099999999999,132.38880944252014L117.015,118.46655480066933L117.3485,125.12193075815834L117.54666666666667,103.38647039731343L117.827,89.30774720509848L117.96716666666667,113.79062088330586L118.03483333333334,108.14917238553365L118.41183333333333,127.14322121938069L118.42633333333333,111.66014941533406L118.64383333333333,123.44930680592856L118.987,107.56050459543863L119.16583333333332,138.22698068618774L120.06966666666666,120.33081404368082L120.16633333333333,120.54061881701152L120.33066666666666,132.413449605306L120.408,113.94368998209634L120.46116666666667,130.68188619613647L120.75116666666666,138.61960562070212L120.7705,114.97166069348653L120.83333333333334,114.11767156918843L120.90583333333333,125.34847489992778L122.34133333333334,133.04968627293906L122.58783333333334,113.60730838775635L122.7425,119.07543174425761L122.786,138.21854066848755L122.87783333333334,118.60201708475746L122.96483333333333,121.906401236852L123.221,106.03133749961853L123.63183333333333,96.45616086324056L123.64633333333333,111.58067258199056L123.82516666666666,134.32192516326904L123.9605,116.04269893964131L124.0475,138.87899549802145L124.05716666666667,119.60982553164163L124.5115,123.91099921862282L124.903,120.51611932118733L125.41533333333334,129.64038801193237L125.43466666666666,122.5998190244039L125.51683333333334,133.6092828909556L125.541,126.32798584302267L125.57,119.10602680842082L125.67150000000001,116.46913083394368L125.8455,107.26998043060301L125.92283333333333,108.41402482986449L126.295,130.19433450698853L126.79766666666666,114.7036432425181L126.962,104.04549511273703L127.17466666666667,114.19740629196167L127.5565,120.357306321462L127.69666666666667,127.53336103757222L128.4845,130.11293522516885L128.53766666666667,118.57580614089964L128.56183333333334,124.77621825536092L128.673,119.74125536282857L128.93883333333332,109.00210650761923L128.9485,127.15642046928406L129.59616666666668,100.45269680023193L129.75566666666668,131.70889568328857L130.80933333333334,110.5082745552063L130.92533333333333,136.26545023918152L131.2105,121.95087544123331L131.28783333333334,100.23703090349832L131.61166666666665,118.1067287127177L131.88233333333332,113.9218631585439L131.98866666666666,117.32923897107443L132.33183333333332,141.19995347658792L132.3415,135.97356629371643L132.52033333333333,123.54477278391519L133.89783333333332,138.03466550509134L134.15883333333335,130.94495685895285L134.27966666666669,83.92217191060382L134.95633333333333,157.03066023190817L135.68133333333333,109.37836718559265L135.7925,123.38814012209572L135.85049999999998,128.73104643821716L136.7785,112.14671643575032L136.93316666666666,147.33887068430582L137.3005,131.34290369351706L137.30533333333332,133.71609600385028L137.75483333333332,119.68090923627217L138.185,127.67030032475789L138.19466666666665,138.91238045692444L138.45566666666667,130.69750022888184L138.47016666666667,126.45606311162314L140.50983333333332,110.85262727737427L141.99849999999998,134.93607711791992L142.43833333333333,122.75910091400145L142.45766666666668,111.00623559951782L142.5495,146.68868454297385L143.1005,122.59466123580933L143.57416666666666,127.77279965082803L143.64183333333335,105.7071704864502L143.83516666666668,141.3497637907664L144.1735,129.8721602757772L144.246,119.63273080190024L144.40066666666667,119.23192373911539L144.43449999999999,117.38967887560526L144.70516666666666,143.72396421432495L144.80183333333335,124.90464719136556L144.8115,127.78501423199971L144.96133333333333,116.8087477684021L145.261,134.2974960009257L145.54616666666666,133.20641271273294L145.90866666666668,135.3818038304647L146.20833333333334,127.01887162526448L146.9285,126.95219548543294L147.1508333333333,133.09620014826456L147.262,134.44151552518207L148.14166666666668,136.1956090927124L148.40266666666668,128.76386872927347L148.451,122.80296556154887L148.46066666666667,138.8631704648336L148.66366666666667,118.81683897972107L148.93916666666667,141.94086980819702L149.38866666666667,138.565941174825L149.43699999999998,127.92893997828165L149.49499999999998,129.8595002492269L150.307,126.38106417655945L150.35049999999998,127.68188190460205L150.38916666666665,134.78624335924783L150.42783333333335,134.08813667297363L150.57766666666666,116.68810240427652L151.10933333333332,155.3909289042155L151.2398333333333,138.71565771102905L151.30266666666668,116.79273517926534L151.31233333333336,136.21162168184915L151.66033333333334,145.2009438673655L151.87300000000002,124.29094068209331L152.4965,123.42961343129475L152.67533333333333,135.00176858901978L152.6995,132.29988447825116L152.9605,138.4151930809021L153.18766666666667,139.05178141593933L153.47766666666666,117.00800251960754L153.77733333333333,118.78664247194924L153.78216666666665,140.6957093079885L154.25583333333336,111.52543735504149L154.52650000000003,121.54479336738585L154.73916666666665,111.56454277038574L154.81166666666667,137.4734512170156L154.95666666666668,128.20377977689108L155.17416666666668,116.54565366109212L155.266,134.86215662956238L155.34816666666666,130.93689195315042L156.16016666666667,127.81525762875874L156.44533333333334,127.41428645451863L156.80783333333332,114.88229028383888L156.82233333333332,111.95168169339499L156.86583333333334,142.30224323272705L157.18966666666668,139.45453437169394L157.267,138.87036792437235L157.69716666666665,119.84363746643066L157.818,135.09953212738037L158.49949999999998,139.41120894749957L158.65900000000002,114.46336062749226L158.69766666666666,129.06107457478842L158.9925,125.29825679461162L159.53383333333335,126.1922656695048L159.72233333333332,108.02336923281351L159.99783333333332,130.96265745162964L160.486,122.21947900454202L160.57783333333333,111.43140149116516L161.25933333333336,124.00634797414145L161.6895,119.68932580947876L161.72816666666665,135.02643219629923L161.994,139.904527982076L162.33233333333334,112.07272561391194L162.47733333333335,137.52636543909708L162.54016666666666,137.97091992696124L163.33283333333335,156.19756015141803L163.3425,148.34506146113077L163.63250000000002,148.11741542816162L163.76783333333333,144.85795092582703L164.20283333333333,129.86203225453696L164.2125,123.50271336237587L164.26083333333332,128.94017132123312L164.91333333333333,157.00323017438254L164.94716666666665,142.06925185521445L165.58999999999997,116.516863822937L165.8365,143.38155738512674L166.04433333333333,126.55073197682698L166.29083333333335,125.27685197194417L166.42133333333334,121.81374859809875L166.7065,147.8433492978414L167.069,123.55532280604044L167.3348333333333,125.06997776031493L167.41216666666668,141.96497074762982L167.58133333333333,135.41591556866962L167.61033333333333,133.2268328666687L168.1275,130.41440796852112L168.16133333333332,152.66487352053323L168.2435,144.7279277642568L168.35466666666667,133.9820268948873L168.43683333333334,152.36609689394632L168.5625,130.95257631937662L168.99266666666665,126.9358546733856L169.04583333333332,138.54936591784158L169.16666666666669,124.53684997558594L169.43733333333336,121.19619719187419L169.49533333333335,139.57736007372537L169.55816666666666,116.2487291495005L170.13816666666668,129.62993176778158L170.346,124.22986777623494L170.39916666666667,133.2851627667745L170.40883333333335,117.69370706876119L170.42816666666667,112.35806854565939L170.6215,133.72587235768637L170.781,127.2086313565572L170.85833333333332,122.55145303408305L172.13916666666668,131.0263795852661L172.5065,121.14930820465088L172.56933333333333,140.62080415089926L172.80133333333333,152.11847615242004L173.48283333333333,129.68453399340314L173.61333333333334,144.3121162255605L173.73416666666665,145.96413246790567L173.77766666666665,136.59592382113138L173.80666666666667,131.43661133448282L173.84533333333334,115.56642405192056L174.03383333333332,124.88270314534505L174.57516666666666,145.43011379241943L175.0246666666667,132.04748106002808L175.18416666666667,138.25377774238586L175.52249999999998,132.0253963470459L175.82216666666665,135.04865757624307L175.9865,133.842227379481L176.27166666666668,126.19538378715515L176.93866666666665,132.27442375818887L177.04500000000002,137.37887612978616L177.19483333333332,133.99241280555725L177.36883333333336,132.2945625782013L177.38816666666668,130.24581861495972L177.42683333333335,120.27398459116615L177.73133333333334,148.31645917892456L177.74583333333334,130.24103593826294L178.25333333333333,128.16713603337607L178.3645,148.94167693456012L178.4418333333333,146.63780999183655L178.5095,129.2615953286489L178.611,138.51621540387472L178.72216666666665,126.21404560407004L178.80916666666667,129.46340552965802L178.90583333333333,152.2980609734853L179.67433333333335,132.21187384923297L179.8435,139.89779941240946L180.06583333333333,153.91130002339682L181.28866666666667,159.0065152645111L181.3563333333333,127.44959386189778L181.58833333333334,127.6741217772166L181.81550000000001,147.382266441981L182.44383333333334,129.88498441378277L182.75799999999998,151.02645508448282L182.76283333333333,144.34325051307678L182.82083333333333,108.58931930859883L182.82566666666665,105.5474665959676L183.19783333333334,115.76396735509236L183.50716666666668,144.73871223131815L183.60383333333334,146.49032068252563L183.72949999999997,128.261617342631L184.56566666666666,109.4577267964681L184.759,144.54672527313232L185.02,157.82151333491007L185.571,131.91349577903748L185.6435,130.54121923446655L185.66766666666666,136.7275412082672L185.73049999999998,133.72155857086182L185.80300000000003,128.21219635009766L187.05966666666666,134.154883146286L187.09833333333333,152.99682410558066L187.2965,128.43508315086365L187.55266666666668,134.64243483543396L187.68316666666666,146.2807972431183L187.82333333333332,118.25006834665932L187.84750000000003,113.91389203071594L187.85716666666667,147.2915362517039L187.95383333333334,127.40964444478352L188.60633333333334,148.78274671236673L188.935,119.6242673397064L189.02200000000002,141.63091015815735L189.457,127.65016150474548L189.83883333333333,143.20164434115094L189.86299999999997,124.4503163496653L190.26416666666668,111.2510430018107L190.74749999999997,124.46635238329567L190.80066666666667,125.79028638203938L190.91666666666666,143.68556213378906L191.516,121.13617928822835L191.7335,133.8033798535665L192.08633333333333,133.63776795069376L192.42466666666667,137.22932370503744L192.74366666666666,137.14487663904825L192.89833333333334,133.93473935127258L193.00466666666665,144.98155029614767L193.0385,145.003986676534L193.082,131.76321657498679L193.09166666666667,150.09134801228842L193.10133333333334,137.46231508255005L193.1786666666667,132.07711489995322L193.43483333333333,120.43929171562195L193.5605,138.9308547178904L193.70066666666668,124.57161815961203L193.88916666666665,135.71858398119608L194.01483333333334,127.85215926170349L194.17433333333332,136.55421606699625L194.387,141.47662194569907L195.16033333333334,153.4560079574585L195.4745,143.55281941095987L195.58083333333335,151.97499585151672L195.64366666666666,144.11047013600668L195.8805,123.27713044484457L196.00133333333332,129.37157344818115L196.13666666666666,144.50597874323526L196.18016666666665,130.34480126698813L196.40733333333333,149.20198114713034L196.74083333333334,116.2621862888336L197.03083333333333,130.88165672620138L197.44166666666666,133.39973600705466L197.5625,140.43962510426837L197.75099999999998,128.5491171677907L197.92016666666666,143.21477325757346L198.1715,149.2489639123281L198.21016666666668,145.07047526041669L198.85783333333333,143.94307645161945L199.0705,123.03898127873738L199.43783333333332,142.91283162434897L199.4813333333333,124.93753981590271L200.593,174.4468477567037L200.7235,121.48022723197936L201.05216666666666,136.23070549964905L201.1295,127.19923011461891L201.22133333333332,131.58252986272177L201.48716666666667,131.72647905349731L201.5258333333333,128.55542373657227L201.69983333333334,140.86263410250345L202.3475,156.6116602420807L202.45383333333334,157.0125845273336L202.4635,141.4175652662913L202.478,152.1505482196808L202.536,149.40941802660623L202.60366666666667,134.73518125216165L202.70033333333333,141.0120224157969L202.72449999999998,119.78504967689513L202.739,145.39567383130392L202.9855,148.62039359410605L203.319,134.3015284538269L203.38666666666668,135.3814287185669L203.5655,140.59810988108316L203.83616666666666,143.0225752989451L203.88449999999997,135.47494880358377L203.99083333333334,150.4118107954661L204.77866666666665,141.7257665793101L205.41183333333333,134.44995554288226L205.54233333333332,144.1662445863088L205.552,144.48905181884766L205.77916666666667,141.18187777201334L205.95800000000003,149.82572189966837L206.132,129.4860997994741L206.26250000000002,157.95852295557657L206.625,135.99311900138855L206.88600000000002,122.41467785835266L206.91016666666667,155.1338131427765L207.53366666666668,130.67536862691242L207.74633333333335,128.97908918062845L208.68883333333335,137.10277032852173L209.70383333333334,142.27415672938028L209.70866666666666,145.12275648117065L209.77633333333335,150.45215876897177L209.81016666666667,121.38623825709024L210.192,158.26545826594034L210.34183333333334,143.02541208267212L210.5593333333333,142.201549132665L211.72899999999998,145.86533737182617L211.89333333333335,132.46791116396585L212.0915,120.32767248153687L212.1785,161.05110955238342L212.23166666666665,161.85994458198547L212.79233333333335,154.7495813369751L212.88899999999998,131.33127522468567L213.05816666666666,151.43729639053345L213.6575,163.1362862586975L213.81699999999998,122.57949264844258L213.82183333333333,151.01206016540527L214.6,151.73136067390442L214.85133333333334,147.84681908289593L214.97699999999998,122.65212368965148L215.3346666666667,124.05194751421608L215.5135,120.51257920265196L215.5763333333333,137.64736247062683L216.03066666666666,155.05450042088827L216.11283333333333,158.37327949206033L216.16116666666665,155.09231638908386L216.17566666666664,153.33972326914468L216.59133333333332,136.156996011734L217.05533333333332,143.77884777386984L217.25833333333333,131.50708548227945L217.48066666666668,148.1811844507853L217.51933333333332,158.99988047281903L217.64983333333336,147.44031500816345L217.7465,147.31659841537476L218.03650000000002,125.77636035283406L218.34583333333333,138.96027755737305L218.35066666666668,140.84830951690674L218.4425,137.3179907798767L218.64066666666668,139.22564578056335L218.6455,152.8214827378591L218.70833333333334,135.21923971176147L218.88233333333335,136.57564433415732L219.0805,132.13671080271402L219.10950000000003,128.99979066848755L219.2835,137.39369304974875L219.5155,139.84678419431052L220.02783333333335,127.99231044451396L220.11483333333334,138.19434595108032L220.371,136.53632791837055L220.487,129.84939567248026L221.33766666666665,136.33275938034058L221.37633333333332,140.4515349070231L221.60833333333332,158.80404861768085L221.77266666666668,162.41562596956888L221.95633333333333,142.58782060941058L222.05783333333335,130.98061593373617L222.401,141.14896170298258L222.546,130.05938800175986L222.6765,138.80727879206339L222.691,139.53902832667032L222.71033333333335,154.3464532693227L222.97616666666667,146.71902171770734L222.981,162.3068669637044L223.60933333333332,139.21455653508502L223.74466666666666,160.52020899454752L223.99116666666666,155.81328145662943L224.14583333333334,151.00596459706625L224.6243333333333,136.85636870066324L224.87083333333334,146.20835375785828L224.89983333333333,141.09796992937726L224.92883333333333,150.395516872406L224.95299999999997,146.52595631281537L225.07383333333334,136.8713497320811L225.10766666666666,144.29755719502765L225.18016666666665,130.956960439682L225.18983333333333,135.76099507013956L225.28650000000002,153.14954153696695L225.49916666666667,151.6164592107137L225.56683333333334,150.06180795033774L226.06949999999998,145.5702649752299L226.74616666666668,148.04021271069846L226.90566666666666,156.44600145022073L226.97816666666665,159.44980374972025L227.01683333333335,145.11609824498495L227.2295,149.85350362459818L227.418,135.70929996172586L227.42283333333333,158.4325706164042L227.6065,138.76505525906882L227.74183333333332,159.9305330912272L227.79016666666666,144.12659994761148L227.80466666666666,152.88965932528177L228.93566666666666,134.76061852773032L228.95016666666666,159.81272451082864L229.24983333333333,145.90043377876282L229.3996666666667,149.563073237737L229.75733333333335,155.28418612480164L230.55,155.98768504460654L230.65633333333332,142.4946287473043L230.8835,139.8347102801005L231.2605,156.81558044751483L231.304,131.10102685292563L231.33783333333332,155.2477064927419L231.37166666666664,148.59451087315878L231.4586666666667,146.71667726834613L231.5215,139.34338402748108L231.768,157.35562435785928L231.87433333333334,148.5652052561442L232.67183333333332,131.7299019495646L232.90383333333335,146.47569131851196L232.93766666666667,138.6098996003469L233.12133333333333,149.17673142751056L233.13583333333332,132.30916849772137L233.43550000000002,147.13241847356161L233.82216666666667,138.68042063713074L234.38283333333334,148.79908752441406L234.44083333333333,138.29583716392517L234.6825,145.36822032928467L234.85649999999998,146.19550617535907L234.958,139.75692145029703L235.67333333333332,139.90666143099466L235.7603333333333,124.3816708723704L236.25816666666665,132.33887267112732L236.41283333333334,146.2852282524109L237.5631666666667,142.12863675753275L237.70816666666667,157.44260342915854L238.07066666666665,128.4558784166972L238.08516666666665,131.31659897168475L238.20600000000002,141.04322703679404L238.525,144.5589164098104L238.59266666666667,156.46391304334006L238.83433333333335,133.4748521645864L238.95033333333333,147.62088449796042L239.076,138.76057736078897L239.1195,161.96389746665955L239.163,148.97885990142822L239.1775,139.02885270118713L239.36116666666666,157.05726973215738L239.85416666666666,161.26860411961874L240.04266666666666,145.22450558344525L240.27466666666666,126.89604592323303L240.3375,149.47775872548422L240.3665,122.32364288965859L240.37133333333333,152.87711652119955L240.4776666666667,149.6231380303701L240.51633333333334,161.77976441383362L240.77733333333333,147.40472626686096L241.42983333333333,139.22566922505698L241.5555,144.70009915033975L241.73916666666668,145.08273673057556L241.88899999999998,162.5749781926473L241.98566666666667,153.76683505376178L242.10649999999998,145.12777360280356L242.3675,142.33621430397034L242.643,156.8967452843984L242.86533333333335,149.16294606526694L243.53233333333333,155.87991070747375L243.73533333333333,144.3906083901723L244.23316666666665,137.13852318127948L244.43133333333333,155.2957911491394L244.4845,144.72863109906513L244.5811666666667,144.64087835947674L244.6005,143.55396819114685L244.6585,157.21069049835205L244.97266666666667,154.8797686100006L245.33033333333333,140.89379183451334L245.55266666666668,133.42690817515054L246.32600000000002,170.9123558998108L246.38400000000001,164.14428226153058L246.50966666666665,148.9900194803874L247.82916666666668,138.5857986609141L248.63633333333334,164.40069468816122L248.8828333333333,154.77058760325116L248.94083333333336,131.19224937756857L249.45316666666665,150.16967606544495L249.9945,148.2811048825582L250.72916666666669,145.15900166829428L250.8065,163.5345847606659L250.8983333333333,134.2612508138021L250.90316666666666,145.05197755495706L251.39616666666666,161.81523593266803L251.42033333333333,154.16743111610413L251.49283333333332,158.83837135632834L251.50733333333332,150.4854265054067L251.56050000000002,140.9520045121511L251.64266666666668,144.5921607017517L251.662,145.66113583246866L251.73933333333332,157.15583038330078L251.8118333333333,148.28178477287292L251.8795,145.62610975901285L252.07283333333334,149.3928427696228L252.10666666666665,140.78268837928772L252.19850000000002,152.81843495368958L252.76883333333333,163.7239224910736L252.8075,131.4996770222982L252.81716666666668,148.46488626797995L252.90416666666667,187.52636663118997L253.02016666666668,134.49794642130533L253.55666666666664,156.57853317260742L253.97716666666668,140.68973096211752L254.29133333333334,159.31905380884805L254.359,143.67306621869406L254.7553333333333,157.50226966540018L255.09366666666668,167.64323226610819L255.72683333333333,173.35318557421368L255.90566666666666,153.2433898448944L256.1666666666667,143.44980430603027L256.7563333333333,159.55685130755106L257.085,150.766432205836L257.12850000000003,154.0587424437205L257.1623333333333,163.5102962652842L257.3653333333333,150.17044973373413L257.3895,141.63693539301553L257.8535,158.71831210454306L258.00333333333333,148.09821438789368L258.0323333333333,141.52182292938232L258.2208333333333,165.62911581993103L258.6365,149.1027171611786L259.1295,159.52925713857013L259.2406666666667,128.7711130777995L259.26,150.36658636728924L259.3953333333333,166.83779668807983L259.52583333333337,142.03197511037192L259.5355,127.03472010294595L259.637,149.37120350201926L259.7481666666667,144.59305159250894L260.246,152.01332759857178L261.4543333333333,158.85858050982156L261.51233333333334,143.09222888946533L261.6041666666667,157.33154686292013L261.80233333333337,135.11683416366577L261.97633333333334,160.89921267827353L262.30016666666666,168.95347468058267L262.5225,152.00863869984946L262.64816666666667,141.7712254524231L262.74966666666666,150.42620571454367L263.33933333333334,144.93250441551208L263.552,146.16514555613202L264.3446666666667,147.7134199142456L264.3978333333333,148.1026922861735L264.6395,141.68192537625632L265.12766666666664,147.33694823582968L265.18083333333334,154.77551094690958L265.6496666666667,156.67329581578574L265.71733333333333,166.21433726946512L265.78499999999997,126.08474922180176L265.8333333333333,151.17640606562298" style="fill: none;" fill="none"></path></g></g></g></g></g></g><g transform="translate(40, 177)" clip-path="url(#clip_1)"><clipPath id="clip_1"><rect width="290" height="23"></rect></clipPath><g><g><line x1="0" y1="0" x2="0" y2="5" style="visibility: inherit;" fill="rgb(0, 0, 0)" stroke="rgb(204, 204, 204)" stroke-width="1px"></line><line x1="24.166666666666664" y1="0" x2="24.166666666666664" y2="5" style="visibility: inherit;" fill="rgb(0, 0, 0)" stroke="rgb(204, 204, 204)" stroke-width="1px"></line><line x1="48.33333333333333" y1="0" x2="48.33333333333333" y2="5" style="visibility: inherit;" fill="rgb(0, 0, 0)" stroke="rgb(204, 204, 204)" stroke-width="1px"></line><line x1="72.5" y1="0" x2="72.5" y2="5" style="visibility: inherit;" fill="rgb(0, 0, 0)" stroke="rgb(204, 204, 204)" stroke-width="1px"></line><line x1="96.66666666666666" y1="0" x2="96.66666666666666" y2="5" style="visibility: inherit;" fill="rgb(0, 0, 0)" stroke="rgb(204, 204, 204)" stroke-width="1px"></line><line x1="120.83333333333334" y1="0" x2="120.83333333333334" y2="5" style="visibility: inherit;" fill="rgb(0, 0, 0)" stroke="rgb(204, 204, 204)" stroke-width="1px"></line><line x1="145" y1="0" x2="145" y2="5" style="visibility: inherit;" fill="rgb(0, 0, 0)" stroke="rgb(204, 204, 204)" stroke-width="1px"></line><line x1="169.16666666666669" y1="0" x2="169.16666666666669" y2="5" style="visibility: inherit;" fill="rgb(0, 0, 0)" stroke="rgb(204, 204, 204)" stroke-width="1px"></line><line x1="193.33333333333331" y1="0" x2="193.33333333333331" y2="5" style="visibility: inherit;" fill="rgb(0, 0, 0)" stroke="rgb(204, 204, 204)" stroke-width="1px"></line><line x1="217.5" y1="0" x2="217.5" y2="5" style="visibility: inherit;" fill="rgb(0, 0, 0)" stroke="rgb(204, 204, 204)" stroke-width="1px"></line><line x1="241.66666666666669" y1="0" x2="241.66666666666669" y2="5" style="visibility: inherit;" fill="rgb(0, 0, 0)" stroke="rgb(204, 204, 204)" stroke-width="1px"></line><line x1="265.8333333333333" y1="0" x2="265.8333333333333" y2="5" style="visibility: inherit;" fill="rgb(0, 0, 0)" stroke="rgb(204, 204, 204)" stroke-width="1px"></line><line x1="290" y1="0" x2="290" y2="5" style="visibility: inherit;" fill="rgb(0, 0, 0)" stroke="rgb(204, 204, 204)" stroke-width="1px"></line></g><g transform="translate(0, 8)"><text x="0" y="0" dx="0em" dy="0.95em" style="text-anchor: middle; visibility: hidden; font-family: Roboto, sans-serif; font-size: 12px; font-weight: 200;" fill="rgb(255, 255, 255)" stroke="none" stroke-width="1px">-5k</text><text x="24.166666666666664" y="0" dx="0em" dy="0.95em" style="text-anchor: middle; visibility: inherit; font-family: Roboto, sans-serif; font-size: 12px; font-weight: 200;" fill="rgb(255, 255, 255)" stroke="none" stroke-width="1px">0</text><text x="48.33333333333333" y="0" dx="0em" dy="0.95em" style="text-anchor: middle; visibility: hidden; font-family: Roboto, sans-serif; font-size: 12px; font-weight: 200;" fill="rgb(255, 255, 255)" stroke="none" stroke-width="1px">5k</text><text x="72.5" y="0" dx="0em" dy="0.95em" style="text-anchor: middle; visibility: inherit; font-family: Roboto, sans-serif; font-size: 12px; font-weight: 200;" fill="rgb(255, 255, 255)" stroke="none" stroke-width="1px">10k</text><text x="96.66666666666666" y="0" dx="0em" dy="0.95em" style="text-anchor: middle; visibility: hidden; font-family: Roboto, sans-serif; font-size: 12px; font-weight: 200;" fill="rgb(255, 255, 255)" stroke="none" stroke-width="1px">15k</text><text x="120.83333333333334" y="0" dx="0em" dy="0.95em" style="text-anchor: middle; visibility: inherit; font-family: Roboto, sans-serif; font-size: 12px; font-weight: 200;" fill="rgb(255, 255, 255)" stroke="none" stroke-width="1px">20k</text><text x="145" y="0" dx="0em" dy="0.95em" style="text-anchor: middle; visibility: hidden; font-family: Roboto, sans-serif; font-size: 12px; font-weight: 200;" fill="rgb(255, 255, 255)" stroke="none" stroke-width="1px">25k</text><text x="169.16666666666669" y="0" dx="0em" dy="0.95em" style="text-anchor: middle; visibility: inherit; font-family: Roboto, sans-serif; font-size: 12px; font-weight: 200;" fill="rgb(255, 255, 255)" stroke="none" stroke-width="1px">30k</text><text x="193.33333333333331" y="0" dx="0em" dy="0.95em" style="text-anchor: middle; visibility: hidden; font-family: Roboto, sans-serif; font-size: 12px; font-weight: 200;" fill="rgb(255, 255, 255)" stroke="none" stroke-width="1px">35k</text><text x="217.5" y="0" dx="0em" dy="0.95em" style="text-anchor: middle; visibility: inherit; font-family: Roboto, sans-serif; font-size: 12px; font-weight: 200;" fill="rgb(255, 255, 255)" stroke="none" stroke-width="1px">40k</text><text x="241.66666666666669" y="0" dx="0em" dy="0.95em" style="text-anchor: middle; visibility: hidden; font-family: Roboto, sans-serif; font-size: 12px; font-weight: 200;" fill="rgb(255, 255, 255)" stroke="none" stroke-width="1px">45k</text><text x="265.8333333333333" y="0" dx="0em" dy="0.95em" style="text-anchor: middle; visibility: inherit; font-family: Roboto, sans-serif; font-size: 12px; font-weight: 200;" fill="rgb(255, 255, 255)" stroke="none" stroke-width="1px">50k</text><text x="290" y="0" dx="0em" dy="0.95em" style="text-anchor: middle; visibility: hidden; font-family: Roboto, sans-serif; font-size: 12px; font-weight: 200;" fill="rgb(255, 255, 255)" stroke="none" stroke-width="1px">55k</text></g><line x1="0" y1="0" x2="290" y2="0" fill="rgb(0, 0, 0)" stroke="rgb(204, 204, 204)" stroke-width="1px"></line></g></g></g></g></svg>